<svg height="512" viewBox="0 0 64 64" width="512" xmlns="http://www.w3.org/2000/svg"><g id="hospital-information-callcenter-covid19-coronavirus"><g fill="#9bc9ff"><path d="m37.43 36.11-4.43-1.11-4 6-1.154-.923-1.688-1.35.174 2.107 1.668 20.166h17v-15.19a9.992 9.992 0 0 0 -7.57-9.7z"/><path d="m21.84 38.73-.17 2.1-1.67 20.17h-17v-15.19a9.992 9.992 0 0 1 7.57-9.7l4.43-1.11 4 6 1.15-.92z"/><path d="m13 16h-1a2.006 2.006 0 0 0 -2 2v3a2.006 2.006 0 0 0 2 2h4v-7z"/><path d="m32 23h4a2.006 2.006 0 0 0 2-2v-3a2.006 2.006 0 0 0 -2-2h-4z"/><path d="m16 14a2 2 0 0 1 2-2h12a2 2 0 0 1 2 2v2h3v-7a6 6 0 0 0 -6-6h-4a4 4 0 0 0 -4 4 2 2 0 0 0 -2-2h-2a4 4 0 0 0 -4 4v7h3z"/><path d="m25 25h-2a2 2 0 0 0 0 4h2a2 2 0 0 0 0-4z"/><path d="m53 7h-4v4h-4v4h4v4h4v-4h4v-4h-4z"/></g><path d="m57 10h-3v-3a1 1 0 0 0 -1-1h-4a1 1 0 0 0 -1 1v3h-3a1 1 0 0 0 -1 1v4a1 1 0 0 0 1 1h3v3a1 1 0 0 0 1 1h4a1 1 0 0 0 1-1v-3h3a1 1 0 0 0 1-1v-4a1 1 0 0 0 -1-1zm-1 4h-3a1 1 0 0 0 -1 1v3h-2v-3a1 1 0 0 0 -1-1h-3v-2h3a1 1 0 0 0 1-1v-3h2v3a1 1 0 0 0 1 1h3z" fill="#1e81ce"/><path d="m37.67 35.14-4.43-1.11-3.24-.81v-2.53a9.156 9.156 0 0 0 2.05-2.69h.95a3.009 3.009 0 0 0 3-3v-1a3.009 3.009 0 0 0 3-3v-3a3.009 3.009 0 0 0 -3-3v-6a7.008 7.008 0 0 0 -7-7h-4a4.989 4.989 0 0 0 -4.33 2.51 2.994 2.994 0 0 0 -1.67-.51h-2a5 5 0 0 0 -5 5v6a3.009 3.009 0 0 0 -3 3v3a3.009 3.009 0 0 0 3 3h3a8.955 8.955 0 0 0 3 6.69v2.53l-3.24.81-4.43 1.11a10.968 10.968 0 0 0 -8.33 10.67v15.19a1 1 0 0 0 1 1h42a1 1 0 0 0 1-1v-15.19a10.968 10.968 0 0 0 -8.33-10.67zm-6.29.49-2.61 3.91-3.02-2.42 3.41-2.05zm-7.38.2-4-2.4v-1.38a8.9 8.9 0 0 0 8 0v1.38zm1.23 4.71-1.23.41-1.23-.41.12-1.37 1.11-.89 1.11.89zm8.77-15.54a1 1 0 0 1 -1 1h-.23a8.759 8.759 0 0 0 .23-2h1zm3-7v3a1 1 0 0 1 -1 1h-3v-5h3a1 1 0 0 1 1 1zm-22 4h-3a1 1 0 0 1 -1-1v-3a1 1 0 0 1 1-1h3zm0-8v1h-1v-6a3.009 3.009 0 0 1 3-3h2a1 1 0 0 1 1 1 1 1 0 0 0 2 0 3.009 3.009 0 0 1 3-3h4a5 5 0 0 1 5 5v6h-1v-1a3.009 3.009 0 0 0 -3-3h-12a3.009 3.009 0 0 0 -3 3zm2 10v-10a1 1 0 0 1 1-1h12a1 1 0 0 1 1 1v10a7.268 7.268 0 0 1 -.29 2h-2.89a3.01 3.01 0 0 0 -2.82-2h-2a3 3 0 0 0 0 6h2a3.01 3.01 0 0 0 2.82-2h1.92a7 7 0 0 1 -12.74-4zm9 3a1 1 0 0 1 -1 1h-2a1 1 0 0 1 0-2h2a1 1 0 0 1 1 1zm-7.16 8.07 3.41 2.05-.97.77-2.05 1.65-2.61-3.91zm.24 24.93h-6.08v-11a1 1 0 0 0 -2 0v11h-7v-14.19a8.978 8.978 0 0 1 6.81-8.73l3.75-.94 3.61 5.41a.961.961 0 0 0 .68.44.757.757 0 0 0 .15.01.977.977 0 0 0 .62-.22l1.11-.89zm2.01 0 1.5-17.41 1.1.36a.986.986 0 0 0 .62 0l1.1-.36 1.5 17.41zm22.91 0h-7v-11a1 1 0 0 0 -2 0v11h-6.08l-1.65-19.11 1.11.89a.977.977 0 0 0 .62.22.757.757 0 0 0 .15-.01.961.961 0 0 0 .68-.44l3.61-5.41 3.75.94a8.978 8.978 0 0 1 6.81 8.73z" fill="#1e81ce"/><path d="m21 20a1 1 0 0 0 1-1v-1a1 1 0 0 0 -2 0v1a1 1 0 0 0 1 1z" fill="#1e81ce"/><path d="m27 20a1 1 0 0 0 1-1v-1a1 1 0 0 0 -2 0v1a1 1 0 0 0 1 1z" fill="#1e81ce"/><path d="m51 2a11 11 0 0 0 -5.639 20.438l-1.331 5.319a1 1 0 0 0 1.525 1.075l7.559-5.032a11 11 0 0 0 -2.114-21.8zm1.559 19.865a1 1 0 0 0 -.383.153l-5.576 3.716.89-3.561a1 1 0 0 0 -.523-1.138 8.985 8.985 0 1 1 5.593.83z" fill="#1e81ce"/></g></svg>