<?xml version="1.0" encoding="iso-8859-1"?>
<!-- Generator: Adobe Illustrator 19.0.0, SVG Export Plug-In . SVG Version: 6.00 Build 0)  -->
<svg xmlns="http://www.w3.org/2000/svg" xmlns:xlink="http://www.w3.org/1999/xlink" version="1.1" id="Layer_1" x="0px" y="0px" viewBox="0 0 512 512" style="enable-background:new 0 0 512 512;" xml:space="preserve" width="512" height="512">
<linearGradient id="SVGID_1_" gradientUnits="userSpaceOnUse" x1="0" y1="256" x2="512" y2="256">
	<stop offset="0" style="stop-color:#00F2FE"/>
	<stop offset="0.0208" style="stop-color:#03EFFE"/>
	<stop offset="0.2931" style="stop-color:#24D2FE"/>
	<stop offset="0.5538" style="stop-color:#3CBDFE"/>
	<stop offset="0.7956" style="stop-color:#4AB0FE"/>
	<stop offset="1" style="stop-color:#4FACFE"/>
</linearGradient>
<path style="fill:url(#SVGID_1_);" d="M472,330V135.065c0-15.537-12.987-17.214-18.571-17.214c-9.682,0-16.429,9.787-16.429,18.571  V234c0,11.046-8.954,20-20,20s-20-8.954-20-20V93.423C397,83.816,389.374,76,380,76s-17,7.816-17,17.423V234  c0,11.046-8.954,20-20,20s-20-8.954-20-20V57c0-9.374-7.626-17-17-17s-17,7.626-17,17v31v124.96V234c0,11.046-8.954,20-20,20  s-20-8.954-20-20v-21.04V88c0-9.374-7.626-17-17-17s-17,7.626-17,17v217.457c0,30.47-21.642,64.183-56.607,65.519  c-4.884,0.19-9.791-0.66-15.008-2.587c-0.477-0.176-0.946-0.37-1.408-0.582L65.72,332.825C63.879,332.277,61.959,332,60,332  c-11.028,0-20,8.972-20,20c0,4.982,1.802,9.673,5.102,13.345l14.037,10.015l96.009,59.902C193.668,459.296,238.027,472,283.43,472  H400.5c30.579,0,57.735-19.339,67.575-48.124c3.573-10.452,14.942-16.029,25.395-12.455c10.452,3.573,16.028,14.943,12.455,25.395  C490.551,481.786,448.184,512,400.5,512H283.43c-52.897,0-104.578-14.8-149.456-42.801l-96.536-60.231  c-0.35-0.219-0.693-0.448-1.029-0.688l-16.026-11.435c-0.846-0.604-1.643-1.272-2.385-1.999C6.392,383.469,0,368.252,0,352  c0-33.084,26.916-60,60-60c6.671,0,13.231,1.092,19.499,3.246c0.625,0.215,1.239,0.46,1.84,0.736l76.245,34.976  C168.395,329.944,175,315.612,175,305.457V88c0-31.43,25.57-57,57-57c7.55,0,14.755,1.489,21.355,4.166  C261.941,14.541,282.302,0,306,0c25.346,0,46.872,16.634,54.259,39.555C366.413,37.259,373.063,36,380,36  c27.15,0,49.913,19.228,55.612,44.874c5.665-1.979,11.656-3.022,17.816-3.022c33.938,0,58.571,24.062,58.571,57.214V330  c0,11.046-8.954,20-20,20S472,341.046,472,330z M300,315c0-11.046-8.954-20-20-20s-20,8.954-20,20c0,11.046,8.954,20,20,20  S300,326.046,300,315z M334,356c0,11.046,8.954,20,20,20s20-8.954,20-20c0-11.046-8.954-20-20-20S334,344.954,334,356z M231,377  c-11.046,0-20,8.954-20,20c0,11.046,8.954,20,20,20s20-8.954,20-20C251,385.954,242.046,377,231,377z M435,311  c0-11.046-8.954-20-20-20s-20,8.954-20,20c0,11.046,8.954,20,20,20S435,322.046,435,311z M308,443c11.046,0,20-8.954,20-20  c0-11.046-8.954-20-20-20s-20,8.954-20,20C288,434.046,296.954,443,308,443z M387,412c0,11.046,8.954,20,20,20s20-8.954,20-20  c0-11.046-8.954-20-20-20S387,400.954,387,412z"/>















</svg>
