<svg height="512" viewBox="0 0 128 128" width="512" xmlns="http://www.w3.org/2000/svg" xmlns:xlink="http://www.w3.org/1999/xlink"><linearGradient id="a" gradientUnits="userSpaceOnUse" x1="80.216" x2="51.416" y1="79.453" y2="50.653"><stop offset="0" stop-color="#4453e2"/><stop offset="1" stop-color="#37d4e9"/></linearGradient><path d="m70.415 74.433a1.749 1.749 0 0 1 0 2.474l-.559.56a1.75 1.75 0 1 1 -2.476-2.474l.559-.559a1.749 1.749 0 0 1 2.476-.001zm14.223-19.865-19.322 19.321a1.748 1.748 0 0 1 -2.474 0l-8.321-8.321a1.749 1.749 0 0 1 0-2.475l19.321-19.321a2.83 2.83 0 0 1 3.825-.172l.093.08c.034.029.068.06.1.092l6.9 6.916a2.857 2.857 0 0 1 -.122 3.88zm-2.938-2.01-5.848-5.846-17.619 17.619 5.846 5.846zm20.454-23.827-10.738 10.737.334.334a4.844 4.844 0 0 1 0 6.842l-1.672 1.672a8.619 8.619 0 0 1 -1.378 10.311l-12.955 12.952a1.75 1.75 0 0 1 -2.474-2.479l12.951-12.948a5.1 5.1 0 0 0 .261-6.9c-.085-.1-.169-.194-.26-.285l-6.779-6.778c-.095-.1-.195-.182-.294-.268a5.1 5.1 0 0 0 -6.892.268l-30.258 30.26 13.961 13.964 4.893-4.892a1.75 1.75 0 0 1 2.475 2.479l-4.893 4.893.873.873a4.022 4.022 0 0 1 0 5.681l-2.071 2.071a4.021 4.021 0 0 1 -5.681 0l-5.419-5.419-6.455 6.455 3.268 3.268a5.007 5.007 0 0 1 0 7.071l-.68.681a5 5 0 0 1 -7.072 0l-16.359-16.364a5 5 0 0 1 0-7.071l.681-.681a5.006 5.006 0 0 1 7.071 0l3.268 3.269 6.456-6.456-5.416-5.418a4.022 4.022 0 0 1 0-5.681l2.068-2.072a4.022 4.022 0 0 1 5.68 0l.874.873 30.261-30.26a8.621 8.621 0 0 1 10.317-1.385l1.667-1.668a4.847 4.847 0 0 1 6.843 0l.333.333 10.735-10.736a1.75 1.75 0 1 1 2.475 2.474zm-78.036 59.2a1.5 1.5 0 0 0 -2.121 0l-.681.68a1.5 1.5 0 0 0 0 2.121l16.359 16.359a1.537 1.537 0 0 0 2.122 0l.681-.68a1.5 1.5 0 0 0 0-2.122zm19.546 1.686-4.872-4.872-6.457 6.455 4.873 4.872zm-5.38-15.931-2.11-2.11a.519.519 0 0 0 -.732 0l-2.07 2.07a.518.518 0 0 0 0 .732l20.66 20.66a.518.518 0 0 0 .731 0l2.071-2.071a.517.517 0 0 0 0-.731l-2.11-2.111zm50.99-31.41-3.141-3.141a1.38 1.38 0 0 0 -1.893 0l-1.45 1.45 2.51 2.515 2.521 2.52 1.45-1.45a1.341 1.341 0 0 0 .003-1.894zm-43.361 28.904a1.749 1.749 0 0 0 0 2.475l2.062 2.062a1.75 1.75 0 0 0 2.475-2.474l-2.063-2.063a1.75 1.75 0 0 0 -2.474 0zm7.378.971a1.75 1.75 0 0 0 1.237-2.987l-2.062-2.064a1.75 1.75 0 1 0 -2.475 2.475l2.063 2.062a1.743 1.743 0 0 0 1.237.514zm44.292-25.951c0-3.037 3.985-8.355 5.207-9.913a1.81 1.81 0 0 1 2.753 0c1.222 1.557 5.207 6.876 5.207 9.913a6.584 6.584 0 0 1 -13.167 0zm3.5 0a3.084 3.084 0 0 0 6.167 0c0-.971-1.426-3.51-3.083-5.887-1.657 2.374-3.084 4.914-3.084 5.887z" fill="url(#a)"/></svg>