<svg id="_x33_0" enable-background="new 0 0 62.108 46" height="512" viewBox="0 0 62.108 46" width="512" xmlns="http://www.w3.org/2000/svg" xmlns:xlink="http://www.w3.org/1999/xlink"><linearGradient id="SVGID_1_" gradientUnits="userSpaceOnUse" x1="31.054" x2="31.054" y1="46" y2="0"><stop offset="0" stop-color="#9f2fff"/><stop offset="1" stop-color="#0bb1d3"/></linearGradient><path d="m40.387 0c-3.016 0-5.976.82-8.563 2.372l-.77.462-.77-.462c-2.586-1.552-5.547-2.372-8.562-2.372-6.345 0-12.049 3.525-14.886 9.2l-6.836 13.673.079.349c3.048 13.411 14.783 22.778 28.536 22.778h4.878c13.753 0 25.488-9.367 28.536-22.778l.079-.349-6.836-13.673c-2.837-5.675-8.541-9.2-14.885-9.2zm-31.762 10.094c2.497-4.992 7.515-8.094 13.097-8.094 2.653 0 5.258.722 7.533 2.086l1.799 1.08 1.799-1.08c2.275-1.364 4.881-2.086 7.534-2.086 5.582 0 10.6 3.102 13.096 8.094l3.64 7.279c-4.286-3.429-9.658-5.373-15.275-5.373h-21.587c-5.617 0-10.99 1.944-15.275 5.373zm50.388 11.906h-2.959v-2.917c1.068.873 2.059 1.848 2.959 2.917zm-4.959 0h-6v-7.114c2.128.613 4.148 1.537 6 2.737zm-8 0h-6v-8h1.793c1.425 0 2.832.14 4.207.403zm-8 0h-6v-8h6zm-8 0h-6v-8h6zm-8 0h-6v-7.597c1.375-.263 2.782-.403 4.207-.403h1.793zm-8 0h-6v-4.377c1.852-1.2 3.872-2.124 6-2.737zm-8 0h-2.959c.9-1.069 1.891-2.044 2.959-2.917zm0 2v2.917c-1.068-.873-2.059-1.848-2.959-2.917zm2 0h6v7.114c-2.128-.613-4.148-1.537-6-2.737zm8 0h6v8h-1.793c-1.425 0-2.832-.14-4.207-.403zm8 0h6v8h-6zm8 0h6v8h-6zm8 0h6v7.597c-1.375.263-2.781.403-4.206.403h-1.793v-8zm8 0h6v4.377c-1.852 1.2-3.872 2.124-6 2.737zm8 0h2.959c-.9 1.069-1.891 2.044-2.959 2.917zm-22.561 20h-4.878c-11.191 0-20.94-6.663-25.123-16.673 4.493 4.235 10.477 6.673 16.769 6.673h21.587c6.292 0 12.276-2.438 16.768-6.673-4.183 10.01-13.932 16.673-25.123 16.673z" fill="url(#SVGID_1_)"/></svg>