<svg id="_x33_0" enable-background="new 0 0 64 64" height="512" viewBox="0 0 64 64" width="512" xmlns="http://www.w3.org/2000/svg" xmlns:xlink="http://www.w3.org/1999/xlink"><linearGradient id="SVGID_1_" gradientUnits="userSpaceOnUse" x1="32" x2="32" y1="63" y2="1"><stop offset="0" stop-color="#9f2fff"/><stop offset="1" stop-color="#0bb1d3"/></linearGradient><path d="m36.707 15.707-1.293 1.293 1.293 1.293-1.414 1.414-2.707-2.707 2.707-2.707zm-25.707 3.801v-8.508c0-2.206 1.794-4 4-4s4 1.794 4 4v.184c1.161.414 2 1.514 2 2.816 0 1.557-.606 3.021-1.707 4.121l-.287.287c.217 6.98 5.963 12.592 12.994 12.592h2c.552 0 1-.449 1-1v-1.002c-.017 0-.033.002-.05.002-3.281 0-5.95-2.669-5.95-5.95v-.086c-1.135-.197-2-1.188-2-2.378 0-.635.258-1.257.706-1.707l1.294-1.293v-1.114c0-.797.114-1.572.328-2.309l-1.846-1.108c-1.531-.918-2.482-2.598-2.482-4.383 0-2.018 1.191-3.851 3.035-4.671l4.002-1.779c1.825-.811 3.764-1.222 5.761-1.222h1.429c3.312 0 6.536 1.167 9.081 3.288 1.711 1.425 2.692 3.521 2.692 5.749 0 1.482-.435 2.918-1.257 4.151l-.387.58.181.136c2.169 1.625 3.463 4.214 3.463 6.925 0 2.312-.9 4.486-2.535 6.121l-.191.191c-.822.82-1.274 1.913-1.274 3.075 0 1.364-.451 2.718-1.271 3.81l-.94 1.253c1.425 2.581 2.21 5.5 2.21 8.53v2.669c0 3.544-2.468 6.516-5.773 7.308l2.055 8.214h-20.669l1.717-5.147c.445-1.337.671-2.73.671-4.14 0-1.673-.315-3.309-.937-4.861l-.2-.502c-.572-1.431-.863-2.938-.863-4.482 0-1.219.208-2.425.57-3.585-8.751-3.167-14.57-11.382-14.57-20.775zm36 27.971v-2.479h-2v-2h1.892c-.302-2.615-1.267-5.08-2.769-7.208l-1.123 3.37v.715c0 2.258-.234 4.517-.675 6.73l2.248 1.574-1.146 1.639-6.427-4.499v1.679h-2v-3.079l-.86-.602c-.298-.209-.647-.319-1.01-.319h-.369c-.971 0-1.761.79-1.761 1.76 0 .503.216.982.591 1.316l6.221 5.529c.36.32.766.569 1.188.782v-1.387h2v1.956c.16.014.318.044.479.044 3.044 0 5.521-2.477 5.521-5.521zm-16.869-35.166c.697-1.191 1.698-2.192 2.93-2.917.281-1.366 1.492-2.396 2.939-2.396h1v2h-1c-.552 0-1 .449-1 1s.448 1 1 1h2c2.466 0 4.521 1.795 4.927 4.146 1.202.392 2.073 1.523 2.073 2.854 0 1.304-.836 2.416-2 2.829v10.711c1.002.881 1.884 1.866 2.65 2.926l.479-.639c.561-.749.87-1.676.87-2.61 0-1.697.661-3.292 1.86-4.491l.191-.19c1.258-1.258 1.95-2.93 1.95-4.707 0-2.084-.995-4.075-2.662-5.326l-1.694-1.271 1.436-2.154c.602-.903.92-1.955.92-3.041 0-1.632-.719-3.168-1.973-4.213-2.185-1.821-4.956-2.824-7.8-2.824h-1.429c-1.716 0-3.381.354-4.948 1.05l-4.002 1.778c-1.122.5-1.848 1.616-1.848 2.844 0 1.087.579 2.109 1.511 2.668zm4.526 20.609-1.591 3.183c-.044.086-.066.182-.066.277 0 .341.277.618.618.618h1.382v-2h2v2h.134c.207 0 .399-.103.515-.275l3.351-5.028v-12.697h1c.552 0 1-.449 1-1s-.448-1-1-1h-1v-1c0-1.654-1.346-3-3-3h-2c-1.089 0-2.035-.589-2.561-1.46-1.521 1.166-2.439 2.961-2.439 4.932v1.942l-1.879 1.879c-.077.077-.121.184-.121.293 0 .228.186.414.414.414h1.586v2.05c0 .112.024.218.033.328 1.518-.69 3.394-.366 4.574.816l.098.097-1.41 1.418-.1-.099c-.62-.621-1.612-.783-2.397-.391l-.109.054c.712 1.041 1.908 1.727 3.261 1.727 1.055 0 2.047-.411 2.793-1.157l.55-.55 1.414 1.414-.55.55c-.621.621-1.357 1.081-2.157 1.375v1.368c0 1.428-1.005 2.621-2.343 2.922zm-2.657.078c-.135 0-.266-.017-.4-.02l-3.333 5.999c-.829 1.492-1.267 3.183-1.267 4.889 0 1.288.242 2.545.721 3.739l.2.502c.716 1.79 1.079 3.676 1.079 5.604 0 1.625-.261 3.23-.773 4.771l-.839 2.516h15.331l-1.502-6.012c-1.749-.061-3.422-.721-4.733-1.887l-6.221-5.529c-.803-.714-1.263-1.738-1.263-2.812 0-2.073 1.687-3.76 3.761-3.76h.369c.775 0 1.521.235 2.156.68l5.244 3.671c.308-1.806.47-3.64.47-5.474v-1.039l1.63-4.888c-.141-.147-.302-.277-.449-.418l-2.868 4.302c-.487.73-1.301 1.166-2.179 1.166h-3.516c-1.443 0-2.618-1.174-2.618-2.618 0-.404.096-.809.276-1.171l1.106-2.211zm-19-22v8h2v2h-1.94c.577 7.937 5.731 14.733 13.259 17.429.07-.139.124-.285.2-.422l2.913-5.244c-7.05-1.223-12.432-7.369-12.432-14.763v-.414l.879-.879c.723-.723 1.121-1.685 1.121-2.707 0-.551-.448-1-1-1s-1 .449-1 1v1h-2v-1c0-1.302.839-2.402 2-2.816v-.184c0-1.103-.897-2-2-2s-2 .897-2 2zm24 11h2v-2h-2zm-16 9h-2v2h2zm-6-4h2v-2h-2zm12 6h-2v2h2z" fill="url(#SVGID_1_)"/></svg>