<svg height="512" viewBox="0 0 60 60" width="512" xmlns="http://www.w3.org/2000/svg"><g id="Page-1" fill="none" fill-rule="evenodd"><g id="018---Puncture-of-Follicles" fill-rule="nonzero" transform="translate(0 -1)"><path id="Shape" d="m17 21.5c0 2.49-3.13 4.5-7 4.5s-7-2.01-7-4.5c.00901036-.675538.23320362-1.3306027.64-1.87 1.1-1.56 3.53-2.63 6.36-2.63 1.5301197-.0256107 3.0435437.3210011 4.41 1.01 1.4495254.585547 2.4494978 1.9330002 2.59 3.49z" fill="#e8edfc"/><path id="Shape" d="m14.41 18.01c-1.3664563-.6889989-2.8798803-1.0356107-4.41-1.01-.5020779.0031159-1.00331484.041544-1.5.115 1.01400801.128466 1.9977883.4330419 2.907.9 1.4491987.5838514 2.4501654 1.9291537 2.593 3.485 0 2.158-2.353 3.954-5.5 4.394.49691824.0702516.99814054.1056713 1.5.106 3.87 0 7-2.01 7-4.5-.1405022-1.5569998-1.1404746-2.904453-2.59-3.49z" fill="#cad9fc"/><path id="Shape" d="m59 14.5c-.0796668 2.0158458-1.0459403 3.893491-2.64 5.13-1.1-1.56-3.53-2.63-6.36-2.63-1.5145572-.0211533-3.0124317.3181821-4.37.99-.5289663-1.2193515-1.4054558-2.2558352-2.52-2.98-1.403948-.802249-3.1881955-.3985142-4.11.93-1.48 2.35-.35 15.82-2.28 19.9l-.03.02c.384547.5504068.4636211 1.2583085.21 1.88l-2.4 6c-.3019004.7580601-1.0340416 1.2567076-1.85 1.26h-5.3c-.8159584-.0032924-1.5480996-.5019399-1.85-1.26l-2.4-6c-.2380406-.5909953-.1785506-1.2602572.16-1.8.0199139-.0356007.0433658-.0691034.07-.1-1.93-4.08-.8-17.55-2.28-19.9-.9218045-1.3285142-2.706052-1.732249-4.11-.93-1.1230866.7259452-2.0040026 1.7705096-2.53 3-1.3664563-.6889989-2.8798803-1.0356107-4.41-1.01-2.83 0-5.26 1.07-6.36 2.63-1.59405971-1.236509-2.56033325-3.1141542-2.64-5.13 0-4.69 5.82-8.5 13-8.5h.05c2.6392665.01906694 5.2356171-.66799925 7.52-1.99 2.498293-1.36053805 5.3055858-2.05288877 8.15-2.01h.56c2.8444142-.04288877 5.651707.64946195 8.15 2.01 2.2843829 1.32200075 4.8807335 2.00906694 7.52 1.99h.05c7.18 0 13 3.81 13 8.5z" fill="#e8edfc"/><path id="Shape" d="m46 6h-.05c-2.6392665.01906694-5.2356171-.66799925-7.52-1.99-2.498293-1.36053805-5.3055858-2.05288877-8.15-2.01h-.56c-.412 0-.818.015-1.22.041 2.429212.12361496 4.7987046.79685173 6.93 1.969 2.2843829 1.32200075 4.8807335 2.00906694 7.52 1.99h.05c7.18 0 13 3.81 13 8.5-.0219381 1.3326204-.4748689 2.6222977-1.291 3.676.6466695.3628743 1.2093072.8583771 1.651 1.454 1.5940597-1.236509 2.5603332-3.1141542 2.64-5.13 0-4.69-5.82-8.5-13-8.5z" fill="#cad9fc"/><path id="Shape" d="m36 15.94c-1.48 2.35-.35 15.82-2.28 19.9l-.03.02c.384547.5504068.4636211 1.2583085.21 1.88l-2.4 6c-.3019004.7580601-1.0340416 1.2567076-1.85 1.26h3c.8159584-.0032924 1.5480996-.5019399 1.85-1.26l2.4-6c.2536211-.6216915.174547-1.3295932-.21-1.88l.03-.02c1.93-4.08.8-17.55 2.28-19.9.261797-.4050079.625215-.7342908 1.054-.955-1.3965909-.7661387-3.1462429-.3539735-4.054.955z" fill="#cad9fc"/><path id="Shape" d="m57 21.5c0 2.4-2.89 4.35-7 4.57v.02c-3.82-.08-7-2.09-7-4.59.1424588-1.573172 1.1601704-2.9314106 2.63-3.51 1.3575683-.6718179 2.8554428-1.0111533 4.37-.99 2.83 0 5.26 1.07 6.36 2.63.4067964.5393973.6309896 1.194462.64 1.87z" fill="#e8edfc"/><path id="Shape" d="m56.36 19.63c-1.1-1.56-3.53-2.63-6.36-2.63-.5020789.0030927-1.0033174.041521-1.5.115 1.8902467.1577957 3.639486 1.063009 4.86 2.515.4067964.5393973.6309896 1.194462.64 1.87 0 2.127-2.272 3.9-5.648 4.427.5444541.0956883 1.0953499.1501762 1.648.163v-.02c4.11-.22 7-2.17 7-4.57-.0090104-.675538-.2332036-1.3306027-.64-1.87z" fill="#cad9fc"/><path id="Shape" d="m52 23v9h-4.0000098l.0000098-8c-.001676-.3773574.2117454-.722712.55-.89l2-1c.3095182-.1559692.6777279-.1405453.9731178.0407631.29539.1813083.4758333.5026437.4768822.8492369z" fill="#cad9fc"/><path id="Shape" d="m54 34v3h-8v-3c.0032948-1.1032019.8967981-1.9967052 2-2h4c1.1032019.0032948 1.9967052.8967981 2 2z" fill="#cad9fc"/><path id="Shape" d="m52 32h-3c1.1032019.0032948 1.9967052.8967981 2 2v3h3v-3c-.0032948-1.1032019-.8967981-1.9967052-2-2z" fill="#a4c2f7"/><path id="Shape" d="m55 38v10c0 2.7614237-2.2385763 5-5 5s-5-2.2385763-5-5v-10c0-.5522847.4477153-1 1-1h8c.5522847 0 1 .4477153 1 1z" fill="#e8edfc"/><path id="Shape" d="m54 37h-3c.5522847 0 1 .4477153 1 1v10c-.0056526 2.1761534-1.4225411 4.0970494-3.5 4.745.4838155.1620147.9898258.2480365 1.5.255 1.3260824 0 2.597852-.5267842 3.5355339-1.4644661s1.4644661-2.2094515 1.4644661-3.5355339v-10c0-.5522847-.4477153-1-1-1z" fill="#cad9fc"/><path id="Shape" d="m5 48h6v9c0 1.6568542-1.34314575 3-3 3s-3-1.3431458-3-3z" fill="#e8edfc"/><path id="Shape" d="m8 48v9c-.00234581 1.0674872-.57418799 2.0525807-1.5 2.584.4540847.2696489.97189407.4132547 1.5.416 1.65685425 0 3-1.3431458 3-3v-9z" fill="#cad9fc"/><rect id="Rectangle-path" fill="#e8edfc" height="5" rx="1" width="8" x="4" y="43"/><path id="Shape" d="m11 43h-3c.55228475 0 1 .4477153 1 1v3c0 .5522847-.44771525 1-1 1h3c.5522847 0 1-.4477153 1-1v-3c0-.5522847-.4477153-1-1-1z" fill="#cad9fc"/><path id="Shape" d="m45.64 18.01c0-.01-.01-.01-.01-.02" fill="#e8edfc"/><g fill="#fff"><path id="Shape" d="m4.8 7.331 1.019 1.722c-2.112 1.212-3.819 3.219-3.819 5.447h-2c.03184064-1.5578614.56132331-3.0646619 1.511-4.3.89435346-1.16580183 2.01256203-2.14121697 3.289-2.869z"/><path id="Shape" d="m26.33 35.84c-1.93-4.08-.8-17.55-2.28-19.9-.9074275-1.3067645-2.6543533-1.7186939-4.05-.955.428785.2207092.792203.5499921 1.054.955 1.48 2.35.35 15.82 2.28 19.9-.0266342.0308966-.0500861.0643993-.07.1-.3385506.5397428-.3980406 1.2090047-.16 1.8l2.4 6c.3013546.7567135 1.0315028 1.2550811 1.846 1.26h3c-.8159584-.0032924-1.5480996-.5019399-1.85-1.26l-2.4-6c-.2380406-.5909953-.1785506-1.2602572.16-1.8.0199139-.0356007.0433658-.0691034.07-.1z"/><path id="Shape" d="m11.523 25.887c-2.786-.406-5.523-1.929-5.523-4.387.00901036-.675538.23320362-1.3306027.64-1.87-6.533-5.63-.261-13.63 10.36-13.63 2.6561948.0280282 5.2709756-.65934483 7.57-1.99 2.145345-1.15444389 4.5177036-1.82450718 6.95-1.963-3.4360901-.30963799-6.8889654.37156746-9.95 1.963-2.2990244 1.33065517-4.9138052 2.0180282-7.57 1.99-10.621 0-16.893 8-10.36 13.63-.40679638.5393973-.63098964 1.194462-.64 1.87 0 2.9 3.8 4.5 7 4.5.509649-.0029054 1.0185027-.0406601 1.523-.113z"/><path id="Shape" d="m6.5 59.584c.93613342.5165682 2.07186658.5165682 3.008 0h-.008c-.92581201-.5314193-1.49765419-1.5165128-1.5-2.584v-9c-.55228475 0-1-.4477153-1-1v-3c0-.5522847.44771525-1 1-1h-3c-.55228475 0-1 .4477153-1 1v3c0 .5522847.44771525 1 1 1v9c.00234581 1.0674872.57418799 2.0525807 1.5 2.584z"/></g><path id="Shape" d="m2.311 11.771c-.55228474.0027614-1.00223854-.4427153-1.00499996-.995-.00276143-.5522847.44271522-1.00223856.99499996-1.005h.01c.55228475 0 1 .4477153 1 1s-.44771525 1-1 1z" fill="#428dff"/><path id="Shape" d="m46.189 18.822c1.1931037-.554875 2.4952515-.8357371 3.811-.822 2.517 0 4.725.962 5.6 2.275l.005.008c.2493299.3575742.3868121.7811587.395 1.217-.0224489.6370077-.3003267 1.2381752-.771 1.668-.2766291.2486207-.3924196.6302279-.3005912.9906491.0918283.3604212.3761017.6400999.7379713.7260435s.7415395-.0360493.9856199-.3166926c.8410216-.8016095 1.3264164-1.9063506 1.348-3.068-.0013123-.5840364-.1288941-1.1608836-.374-1.691 1.4644487-1.3845463 2.3184818-3.294429 2.374-5.309 0-5.238-6.28-9.5-14.053-9.5h-.036c-2.4502715.00490349-4.8587723-.63446655-6.984-1.854-2.6494577-1.44798173-5.6279636-2.18718304-8.647-2.146-.094 0-.186.008-.28.01s-.186-.01-.28-.01c-3.0190364-.04118304-5.9975423.69801827-8.647 2.146-2.1258516 1.21978488-4.5350628 1.85916043-6.986 1.854h-.087c-3.217249-.03672827-6.38839202.76674287-9.2 2.331-.24222771.13018793-.4171598.3578159-.48061348.62539166s-.00936184.54951512.14861348.77460834c.30495857.43042923.88212258.56744146 1.348.32 2.50452574-1.3804208 5.3244711-2.08712999 8.184-2.051v-.01c.016 0 .03.01.047.01h.042c1.3336103-.00243651 2.6617625-.17038696 3.954-.5-.6718088 1.04448776-1.0334802 2.25815014-1.043 3.5 0 .5522847.4477153 1 1 1s1-.4477153 1-1c0-3.8 4.911-6.9 11-6.991 6.089.091 11 3.191 11 6.991 0 .5522847.4477153 1 1 1s1-.4477153 1-1c-.0092699-1.24203091-.3713349-2.45585043-1.044-3.5 1.3076856.33059327 2.6511741.49852933 4 .5h.044c6.617 0 12 3.364 12 7.5-.0421932 1.385022-.6091237 2.7022595-1.586 3.685-1.7975818-1.4904722-4.0803552-2.2681242-6.414-2.185-1.3493147-.0095149-2.6890022.2277179-3.953.7-.5775335-1.055825-1.4237513-1.9403347-2.453-2.564-1.867806-1.0630754-4.239162-.5093378-5.443 1.271-.8 1.267-.938 4.259-1.1 9.035.0072342 3.289274-.2765386 6.5727396-.848 9.812-.3634369-.161052-.7555318-.2474285-1.153-.254h-1.05c-.5522847 0-1 .4477153-1 1s.4477153 1 1 1h1.05c.330052.0024485.6376377.1676006.8220127.4413636.1843751.273763.2217889.6208715.0999873.9276364l-2.4 6c-.1488677.3794951-.5143528.6296265-.922.631h-5.3c-.4067643-.0034347-.7709131-.2529221-.921-.631l-2.4-6c-.1212091-.2973128-.0910271-.6349037.081-.906.180182-.2901719.4984469-.4655964.84-.463h1.05c.5522847 0 1-.4477153 1-1s-.4477153-1-1-1h-1.05c-.3821731.0064278-.7594723.0869138-1.111.237-.5677845-3.2356466-.8502035-6.5149202-.844-9.8-.161-4.776-.3-7.768-1.1-9.035-1.2025168-1.7809144-3.5739499-2.3348735-5.441-1.271-1.0347924.6269556-1.8847085 1.5172453-2.463 2.58-1.27505-.481286-2.6281867-.7223484-3.991-.711-2.33364476-.0831242-4.61641823.6945278-6.414 2.185-.9768763-.9827405-1.54380678-2.299978-1.586-3.685 0-.5522847-.44771525-1-1-1s-1 .4477153-1 1c.05551824 2.014571.9095513 3.9244537 2.374 5.309-.24510592.5301164-.37268774 1.1069636-.374 1.691 0 3.084 3.514 5.5 8 5.5s8-2.416 8-5.5c-.0664481-1.5766864-.9074437-3.0187674-2.247-3.853.3976057-.7220694.9744631-1.3295778 1.675-1.764.9397638-.5440195 2.1387212-.2891979 2.776.59.55.874.685 4.845.792 8.036.147 4.335.3 8.808 1.232 11.289-.3319597.7317004-.3525315 1.5668429-.057 2.314l2.4 5.995c.4555803 1.1371001 1.5540544 1.8853591 2.779 1.893h5.3c1.2238855-.0062712 2.3222879-.752505 2.779-1.888l2.4-6c.2916304-.7305206.2815606-1.546895-.028-2.27.952-2.471 1.1-6.972 1.252-11.336.107-3.191.242-7.162.793-8.036.6373932-.8798257 1.8373317-1.1343319 2.777-.589.6923235.4281816 1.263465 1.0265203 1.659 1.738-1.3595108.8329188-2.2151066 2.2880316-2.282 3.881.0310105 1.2676422.5965778 2.4630704 1.557 3.291.2609825.244191.6324147.3306003.9743816.2266784.3419669-.103922.6025156-.382387.6835-.7305.0809843-.348113-.0298991-.7129874-.2908816-.9571784-.5456364-.4577044-.8796347-1.1191947-.924-1.83.1405507-1.154057.9004254-2.1390939 1.981-2.568zm-36.189 6.178c-3.252 0-6-1.6-6-3.5.00985461-.4360214.14908294-.8592755.4-1.216v-.008c.874-1.314 3.083-2.276 5.6-2.276 1.3718409-.0162727 2.7280837.29212 3.958.9l.008.006h.007c1.1027304.4241622 1.8820181 1.4214352 2.027 2.594 0 1.9-2.748 3.5-6 3.5z" fill="#428dff"/><path id="Shape" d="m31 32v-4c0-.5522847-.4477153-1-1-1s-1 .4477153-1 1v4c0 .5522847.4477153 1 1 1s1-.4477153 1-1z" fill="#428dff"/><path id="Shape" d="m55 36.278v-2.278c-.0052514-1.2667854-.8056491-2.3937454-2-2.816v-8.184c.0010227-.6947884-.3586134-1.3403254-.9499369-1.7051109-.5913236-.3647854-1.3295969-.396545-1.9500631-.0838891l-2 1c-.6769347.3387428-1.1032261 1.0320477-1.1 1.789v7.183c-1.1946951.4223781-1.9951701 1.5498471-2 2.817v2.278c-.6167513.3544126-.997855 1.0106732-1 1.722v10c.0054296 2.9246159 2.1166966 5.4201335 5 5.91v1.59c0 1.9329966-1.5670034 3.5-3.5 3.5h-24c-1.9329966 0-3.5-1.5670034-3.5-3.5v-16c0-3.0375661-2.4624339-5.5-5.5-5.5-3.03756612 0-5.5 2.4624339-5.5 5.5v2.5h-2c-1.1045695 0-2 .8954305-2 2v3c.002145.7113268.38324874 1.3675874 1 1.722v8.278c.00000003 2.209139 1.79086102 3.9999999 4 3.9999999 2.209139 0 4-1.7908609 4-3.9999999v-8.278c.6167513-.3544126.997855-1.0106732 1-1.722v-3c0-1.1045695-.8954305-2-2-2h-2v-2.5c0-1.9329966 1.5670034-3.5 3.5-3.5s3.5 1.5670034 3.5 3.5v16c.0033068 3.0361953 2.4638047 5.4966932 5.5 5.5h24c3.0361953-.0033068 5.4966932-2.4638047 5.5-5.5v-1.59c2.8833034-.4898665 4.9945704-2.9853841 5-5.91v-10c-.002145-.7113268-.3832487-1.3675874-1-1.722zm-45 20.722c0 1.1045695-.8954305 2-2 2s-2-.8954305-2-2v-8h4zm1-10h-6v-3h6zm40-24v8h-2v-7zm-4 11c0-.5522847.4477153-1 1-1h4c.5522847 0 1 .4477153 1 1v2h-6zm7 14c0 2.209139-1.790861 4-4 4s-4-1.790861-4-4v-10h8z" fill="#428dff"/></g></g></svg>