<svg id="_x33_0" enable-background="new 0 0 62 62" height="512" viewBox="0 0 62 62" width="512" xmlns="http://www.w3.org/2000/svg" xmlns:xlink="http://www.w3.org/1999/xlink"><linearGradient id="SVGID_1_" gradientUnits="userSpaceOnUse" x1="31" x2="31" y1="62" y2="0"><stop offset="0" stop-color="#9f2fff"/><stop offset="1" stop-color="#0bb1d3"/></linearGradient><path d="m7.586 12h-7.586v-2h8.414l2.586 2.586 1.586-1.586-2.586-2.586v-8.414h2v7.586l5.707 5.707-1.414 1.414-2.293-2.293-1.586 1.586 2.293 2.293-1.414 1.414zm-1.586 2h-6v2h6zm10-14h-2v6h2zm0 62v-6h-2v6zm-5-12.586 1.586 1.586-2.586 2.586v8.414h2v-7.586l5.707-5.707-1.414-1.414-2.293 2.293-1.586-1.586 2.293-2.293-1.414-1.414-5.707 5.707h-7.586v2h8.414zm-5-3.414h-6v2h6zm42.707-1.707-1.414 1.414 2.293 2.293-1.586 1.586-2.293-2.293-1.414 1.414 5.707 5.707v7.586h2v-8.414l-2.586-2.586 1.586-1.586 2.586 2.586h8.414v-2h-7.586zm7.293 3.707h6v-2h-6zm-8 8h-2v6h2zm0-56h-2v6h2zm3 12.586-1.586-1.586 2.586-2.586v-8.414h-2v7.586l-5.707 5.707 1.414 1.414 2.293-2.293 1.586 1.586-2.293 2.293 1.414 1.414 5.707-5.707h7.586v-2h-8.414zm5 3.414h6v-2h-6zm-28 15c0-1.654 1.346-3 3-3s3 1.346 3 3-1.346 3-3 3-3-1.346-3-3zm2 0c0 .551.449 1 1 1s1-.449 1-1-.449-1-1-1-1 .449-1 1zm-13.849-14.85c1.133-1.133 3.109-1.133 4.243 0 .92.92 1.105 2.291.577 3.405l1.582 1.582c2.036-1.747 4.615-2.871 7.447-3.088v-2.235c-1.161-.414-2-1.514-2-2.816 0-1.654 1.346-3 3-3s3 1.346 3 3c0 1.302-.839 2.402-2 2.816v2.235c2.833.217 5.411 1.341 7.447 3.088l1.582-1.582c-.528-1.114-.344-2.485.577-3.405 1.134-1.134 3.109-1.134 4.243 0 .566.566.878 1.32.878 2.121s-.312 1.555-.879 2.122c-.584.585-1.353.877-2.121.877-.441 0-.878-.108-1.284-.3l-1.582 1.582c1.747 2.036 2.871 4.615 3.088 7.447h2.235c.414-1.161 1.514-2 2.816-2 1.654 0 3 1.346 3 3s-1.346 3-3 3c-1.302 0-2.402-.839-2.816-2h-2.235c-.217 2.833-1.341 5.411-3.088 7.447l1.582 1.582c1.114-.529 2.485-.344 3.405.577.567.567.879 1.32.879 2.122s-.312 1.555-.879 2.122c-.566.566-1.32.878-2.121.878s-1.555-.312-2.122-.879c-.92-.92-1.105-2.291-.577-3.405l-1.582-1.582c-2.036 1.747-4.615 2.871-7.447 3.088v2.235c1.161.414 2 1.514 2 2.816 0 1.654-1.346 3-3 3s-3-1.346-3-3c0-1.302.839-2.402 2-2.816v-2.235c-2.833-.217-5.411-1.341-7.447-3.088l-1.582 1.582c.528 1.114.344 2.485-.577 3.405-.567.567-1.32.879-2.122.879s-1.555-.312-2.122-.879c-.566-.566-.878-1.32-.878-2.121s.312-1.555.879-2.122c.92-.921 2.291-1.105 3.405-.577l1.582-1.582c-1.747-2.036-2.871-4.615-3.088-7.447h-2.235c-.414 1.161-1.514 2-2.816 2-1.654 0-3-1.346-3-3s1.346-3 3-3c1.302 0 2.402.839 2.816 2h2.235c.217-2.833 1.341-5.411 3.088-7.447l-1.582-1.582c-.406.193-.843.3-1.284.3-.769 0-1.537-.292-2.121-.877-.567-.567-.879-1.32-.879-2.122s.313-1.554.88-2.121zm-2.151 14.85c0-.551-.449-1-1-1s-1 .449-1 1 .449 1 1 1 1-.449 1-1zm6 0c0 1.793.44 3.482 1.204 4.979 1.558-.107 2.796-1.395 2.796-2.979 0-1.654-1.346-3-3-3-.329 0-.649.073-.958.178-.021.272-.042.544-.042.822zm-1.021 12.021c-.195-.195-.451-.292-.707-.292s-.512.098-.707.292c-.189.189-.293.44-.293.708s.104.518.293.707c.378.379 1.037.378 1.415 0 .389-.391.389-1.025-.001-1.415zm14.661-1.355c1.593-.395 3.052-1.128 4.288-2.133.032-.176.072-.352.072-.533 0-1.654-1.346-3-3-3s-3 1.346-3 3c0 1.145.637 2.158 1.64 2.666zm-1.64 7.334c0-.551-.449-1-1-1s-1 .449-1 1 .449 1 1 1 1-.449 1-1zm11.021-5.979c-.39.39-.39 1.024 0 1.414.378.378 1.037.378 1.414 0 .189-.189.293-.44.293-.707s-.104-.519-.293-.708c-.195-.195-.451-.292-.707-.292-.256.001-.513.098-.707.293zm4.979-12.021c0 .551.449 1 1 1s1-.449 1-1-.449-1-1-1-1 .449-1 1zm-4.979-12.021c.389.389 1.023.39 1.414 0 .189-.189.293-.44.293-.708s-.104-.518-.293-.707-.44-.293-.707-.293-.519.104-.708.293c-.389.391-.389 1.025.001 1.415zm-7.998 1.794c-.637.565-1.023 1.359-1.023 2.227 0 1.654 1.346 3 3 3 1.159 0 2.211-.679 2.704-1.7-1.206-1.563-2.817-2.792-4.681-3.527zm-5.023-7.773c0 .551.449 1 1 1s1-.449 1-1-.449-1-1-1-1 .449-1 1zm-3 9c-.551 0-1 .449-1 1s.449 1 1 1 1-.449 1-1-.449-1-1-1zm-6.583 6.036c.193-.022.388-.036.583-.036 2.757 0 5 2.243 5 5 0 2.282-1.546 4.19-3.639 4.788 2.016 2.56 5.135 4.212 8.639 4.212h.005c-.634-.845-1.005-1.883-1.005-3 0-2.757 2.243-5 5-5 2.269 0 4.168 1.529 4.777 3.603 1.389-1.841 2.223-4.124 2.223-6.603 0-1.742-.418-3.385-1.142-4.85-.932 1.134-2.334 1.85-3.858 1.85-2.757 0-5-2.243-5-5 0-1.031.317-2.008.88-2.827-.612-.106-1.238-.173-1.88-.173-.915 0-1.799.125-2.649.336.974.496 1.649 1.498 1.649 2.664 0 1.654-1.346 3-3 3s-3-1.346-3-3c0-.178.023-.35.052-.519-1.73 1.414-3.015 3.346-3.635 5.555zm-3.145-9.764c0 .267.104.519.293.708.39.39 1.025.39 1.415 0s.39-1.024 0-1.414c-.189-.189-.44-.293-.708-.293s-.518.104-.707.293c-.189.188-.293.439-.293.706zm10.544 39.728c-.035.098-.072.193-.116.285l1.008 1.008-1.414 1.414-1.008-1.008c-.093.044-.188.082-.285.116v2.185h-2v-2.184c-.098-.035-.193-.072-.285-.116l-1.008 1.008-1.414-1.414 1.008-1.008c-.044-.093-.081-.188-.116-.285h-2.186v-2h2.184c.035-.098.072-.193.116-.285l-1.008-1.008 1.414-1.414 1.008 1.008c.093-.044.188-.082.285-.116v-2.186h2v2.184c.098.035.193.072.285.116l1.008-1.008 1.414 1.414-1.008 1.008c.044.093.082.188.116.285h2.186v2h-2.184zm-2.816-2c-.551 0-1 .449-1 1s.449 1 1 1 1-.449 1-1-.449-1-1-1zm34.816-20h2.184v2h-2.184c-.035.098-.072.193-.116.285l1.008 1.008-1.414 1.414-1.008-1.008c-.093.044-.188.082-.285.116v2.185h-2v-2.184c-.098-.035-.193-.072-.285-.116l-1.008 1.008-1.414-1.414 1.008-1.008c-.044-.093-.081-.188-.116-.285h-2.186v-2h2.184c.035-.098.072-.193.116-.285l-1.008-1.008 1.414-1.414 1.008 1.008c.093-.044.188-.082.285-.116v-2.186h2v2.184c.098.035.193.072.285.116l1.008-1.008 1.414 1.414-1.008 1.008c.046.093.083.188.118.286zm-2.816 0c-.551 0-1 .449-1 1s.449 1 1 1 1-.449 1-1-.449-1-1-1zm-22.816-30h-2.184v-2h2.184c.035-.098.072-.193.116-.285l-1.008-1.008 1.414-1.414 1.008 1.008c.093-.045.188-.082.286-.117v-2.184h2v2.184c.098.035.193.072.285.116l1.008-1.008 1.414 1.414-1.008 1.008c.045.093.082.188.117.286h2.184v2h-2.184c-.035.098-.072.193-.116.285l1.008 1.008-1.414 1.414-1.008-1.008c-.093.045-.188.082-.286.117v2.184h-2v-2.184c-.098-.035-.193-.072-.285-.116l-1.008 1.008-1.414-1.414 1.008-1.008c-.045-.093-.082-.188-.117-.286zm2.816 0c.551 0 1-.449 1-1s-.449-1-1-1-1 .449-1 1 .449 1 1 1zm-34.816 20h-2.184v-2h2.184c.035-.098.072-.193.116-.285l-1.008-1.008 1.414-1.414 1.008 1.008c.093-.045.188-.082.286-.117v-2.184h2v2.184c.098.035.193.072.285.116l1.008-1.008 1.414 1.414-1.008 1.008c.045.093.082.188.117.286h2.184v2h-2.184c-.035.098-.072.193-.116.285l1.008 1.008-1.414 1.414-1.008-1.008c-.093.045-.188.082-.286.117v2.184h-2v-2.184c-.098-.035-.193-.072-.285-.116l-1.008 1.008-1.414-1.414 1.008-1.008c-.045-.093-.082-.188-.117-.286zm2.816 0c.551 0 1-.449 1-1s-.449-1-1-1-1 .449-1 1 .449 1 1 1z" fill="url(#SVGID_1_)"/></svg>