<svg height="486pt" viewBox="0 0 486 486.52702" width="486pt" xmlns="http://www.w3.org/2000/svg" xmlns:xlink="http://www.w3.org/1999/xlink"><linearGradient id="a"><stop offset="0" stop-color="#00efd1"/><stop offset="1" stop-color="#00acea"/></linearGradient><linearGradient id="b" gradientUnits="userSpaceOnUse" x1="243.526676" x2="243.526676" xlink:href="#a" y1="21.263901" y2="472.333901"/><linearGradient id="c" gradientUnits="userSpaceOnUse" x1="243.520676" x2="243.520676" xlink:href="#a" y1="21.263901" y2="472.333901"/><path d="m243.527344 72.0625c-65.949219.074219-119.394532 53.515625-119.46875 119.464844 0 4.417968 3.582031 8 8 8 4.417968 0 8-3.582032 8-8 0-57.140625 46.324218-103.464844 103.46875-103.464844 57.144531 0 103.46875 46.324219 103.46875 103.464844 0 29.527344-35.640625 92.828125-47.351563 113.628906-3.746093 6.648438-5.902343 15.917969-8.410156 26.65625-3.5 15.027344-7.480469 31.957031-16.527344 45.097656-9.949219 14.4375-24.679687 21.355469-45.039062 21.355469h-.042969c-27.898438 0-49.75-20.867187-49.75-47.601563-.023438-4.417968-3.621094-7.984374-8.039062-7.960937-4.417969.019531-7.984376 3.617187-7.960938 8.035156-.066406 17.15625 6.972656 33.570313 19.441406 45.351563 12.503906 11.808594 29.097656 18.324218 46.296875 18.175781h.054688c25.652343 0 45.242187-9.449219 58.214843-28.28125 10.765626-15.632813 15.292969-34.992187 18.933594-50.589844 2.132813-9.144531 4.148438-17.757812 6.769532-22.414062 23-40.855469 49.410156-91.574219 49.410156-121.464844-.078125-65.945313-53.523438-119.382813-119.46875-119.453125zm0 0" fill="url(#b)"/><path d="m265.511719 246.765625c25.648437-10.996094 39.226562-39.253906 31.78125-66.148437-7.441407-26.894532-33.613281-44.148438-61.265625-40.394532-27.648438 3.757813-48.273438 27.367188-48.273438 55.273438 0 4.417968 3.582032 8 8 8 4.417969 0 8-3.582032 8-8-.019531-11.988282 5.382813-23.339844 14.699219-30.878906 9.453125-7.621094 21.847656-10.558594 33.71875-7.992188 15.335937 3.203125 27.886719 16.289062 30.527344 31.839844 3.230469 18.285156-6.570313 36.378906-23.648438 43.660156-.5.214844-50.527343 26.265625-48.527343 61.355469v17.464843c0 4.417969 3.582031 8 8 8 4.417968 0 8-3.582031 8-8v-17.667968c0-.144532-.007813-.285156-.015626-.425782-1.117187-21.027343 32.070313-42.515624 39.003907-46.085937zm0 0" fill="url(#c)"/><path d="m243.527344 0c-98.390625 0-187.09375 59.269531-224.746094 150.171875s-16.839844 195.53125 52.734375 265.105469c95 95 249.023437 95 344.023437 0s95-249.027344 0-344.027344c-45.519531-45.769531-107.460937-71.425781-172.011718-71.25zm160.699218 403.964844c-88.753906 88.75-232.648437 88.75-321.398437 0-88.753906-88.753906-88.753906-232.648438 0-321.402344 88.75-88.75 232.644531-88.75 321.398437 0 88.753907 88.753906 88.753907 232.648438 0 321.402344zm0 0" fill="url(#b)"/></svg>