<svg id="Layer_5" enable-background="new 0 0 64 64" height="512" viewBox="0 0 64 64" width="512" xmlns="http://www.w3.org/2000/svg" xmlns:xlink="http://www.w3.org/1999/xlink"><linearGradient id="SVGID_1_" gradientUnits="userSpaceOnUse" x1="32" x2="32" y1="59" y2="5"><stop offset="0" stop-color="#9f2fff"/><stop offset="1" stop-color="#0bb1d3"/></linearGradient><path d="m31 20h2v9h-2zm-30 36v-48c0-1.654 1.346-3 3-3h56c1.654 0 3 1.346 3 3v48c0 1.654-1.346 3-3 3h-56c-1.654 0-3-1.346-3-3zm2 0c0 .552.449 1 1 1h56c.551 0 1-.448 1-1v-48c0-.552-.449-1-1-1h-56c-.551 0-1 .448-1 1zm56-5h-54v-19-6.681-16.319h54v16.319 6.681zm-2-40h-19v2.21l14.084 3.354c1.999.476 3.7 1.589 4.916 3.091zm-50 8.655c1.216-1.503 2.916-2.615 4.915-3.091l14.085-3.354v-2.21h-19zm38.024 29.345c.085-2.323.467-4.607 1.141-6.824-1.286.528-2.691.824-4.165.824-4.439 0-8.264-2.649-10-6.444-1.736 3.795-5.561 6.444-10 6.444-1.474 0-2.879-.296-4.164-.824.674 2.217 1.056 4.501 1.141 6.824zm11.976-17v-6.681c0-3.256-2.212-6.056-5.379-6.811l-15.621-3.718v-3.79h-8v3.79l-15.622 3.719c-3.166.755-5.378 3.554-5.378 6.81v6.681 17h9.953c-.113-2.84-.678-5.62-1.738-8.271l-.05-.126c-2.534-2.018-4.165-5.121-4.165-8.603 0-6.065 4.935-11 11-11v2c-4.962 0-9 4.037-9 9s4.038 9 9 9 9-4.037 9-9h2c0 4.963 4.038 9 9 9s9-4.037 9-9-4.038-9-9-9v-2c6.065 0 11 4.935 11 11 0 3.482-1.631 6.585-4.164 8.602l-.051.127c-1.06 2.65-1.625 5.431-1.738 8.271h9.953zm-50 21h-2v2h2zm2 2h2v-2h-2zm4 0h2v-2h-2zm44 0h2v-2h-2zm-10 0h8v-2h-8zm-5-24c1.654 0 3 1.346 3 3s-1.346 3-3 3-3-1.346-3-3 1.346-3 3-3zm0 2c-.551 0-1 .448-1 1s.449 1 1 1 1-.448 1-1-.449-1-1-1zm-17 1c0 1.654-1.346 3-3 3s-3-1.346-3-3 1.346-3 3-3 3 1.346 3 3zm-2 0c0-.552-.449-1-1-1s-1 .448-1 1 .449 1 1 1 1-.448 1-1z" fill="url(#SVGID_1_)"/></svg>