<svg height="479pt" viewBox="-13 0 479 479.97844" width="479pt" xmlns="http://www.w3.org/2000/svg"><path d="m388.953125 64.21875c-51.746094-51.738281-128.402344-69.5625-197.667969-45.964844s-119.09375 84.515625-128.492187 157.085938l-54.320313 120.636718h52.71875v96h96v80h192v-105.839843c14.546875-8.320313 27.917969-18.542969 39.761719-30.398438 74.972656-74.980469 74.972656-196.539062 0-271.519531zm-39.761719 15.757812c8.835938 0 16 7.164063 16 16 0 8.839844-7.164062 16-16 16-8.835937 0-16-7.160156-16-16 0-8.835937 7.164063-16 16-16zm-200-8c8.835938 0 16 7.164063 16 16 0 8.839844-7.164062 16-16 16-8.835937 0-16-7.160156-16-16 0-8.835937 7.164063-16 16-16zm-16 96c-8.835937 0-16-7.160156-16-16 0-8.835937 7.164063-16 16-16 8.835938 0 16 7.164063 16 16 0 8.839844-7.164062 16-16 16zm104-120c0-8.835937 7.164063-16 16-16 8.835938 0 16 7.164063 16 16 0 8.839844-7.164062 16-16 16-8.835937 0-16-7.160156-16-16zm159.015625 160c-8.808593-.558593-15.503906-8.148437-14.957031-16.957031.550781-8.8125 8.128906-15.515625 16.941406-14.980469 8.8125.539063 15.527344 8.109376 15 16.921876-.253906 4.246093-2.1875 8.21875-5.371094 11.035156-3.1875 2.820312-7.367187 4.25-11.613281 3.980468zm0 0" fill="#9bc9ff"/><g fill="#1e81ce"><path d="m394.601562 58.554688c-53.753906-53.734376-133.320312-72.355469-205.335937-48.058594-72.019531 24.296875-124.039063 87.316406-134.25 162.632812l-53.824219 119.570313c-1.1093748 2.472656-.894531 5.339843.574219 7.617187 1.472656 2.277344 3.996094 3.65625 6.707031 3.660156h44.71875v88c0 4.421876 3.582032 8 8 8h88v72c0 4.421876 3.582032 8 8 8h192c4.417969 0 8-3.578124 8-8v-101.261718c13.617188-8.226563 26.183594-18.074219 37.425782-29.328125 78.097656-78.105469 78.097656-204.730469 0-282.832031zm-11.3125 271.527343c-11.34375 11.355469-24.15625 21.140625-38.097656 29.097657-2.480468 1.433593-4.007812 4.085937-4 6.949218v97.847656h-176v-72c0-4.417968-3.582031-8-8-8h-88v-88c0-4.417968-3.582031-8-8-8h-40.34375l49.242188-109.359374c.328125-.714844.542968-1.480469.640625-2.261719 10.300781-79.703125 71.136719-143.496094 150.261719-157.566407 79.121093-14.074218 158.222656 24.832032 195.375 96.09375 37.152343 71.257813 23.757812 158.386719-33.078126 215.199219zm0 0"/><path d="m415.175781 176.082031c-5.589843-6.417969-14.175781-9.367187-22.53125-7.738281-8.351562 1.628906-15.203125 7.589844-17.972656 15.632812h-22.167969l-21.65625-21.652343c-3.136718-3.035157-8.128906-2.988281-11.214844.09375-3.085937 3.085937-3.128906 8.078125-.097656 11.214843l18.34375 18.34375-26.34375 26.347657c-1.5 1.5-2.34375 3.53125-2.34375 5.652343v128c0 4.421876 3.582032 8 8 8 4.417969 0 8-3.578124 8-8v-124.6875l27.3125-27.3125h22.074219c3.191406 9.085938 11.523437 15.371094 21.132813 15.953126.503906 0 1.019531.046874 1.523437.046874 9.429687-.011718 17.980469-5.550781 21.847656-14.152343 3.871094-8.605469 2.34375-18.675781-3.90625-25.742188zm-12.6875 21.886719c-1.597656 1.394531-3.675781 2.109375-5.792969 1.992188-4.308593-.269532-7.625-3.914063-7.488281-8.230469.132813-4.316407 3.667969-7.746094 7.984375-7.753907h.503906c3.226563.203126 6.015626 2.328126 7.066407 5.386719 1.050781 3.058594.15625 6.449219-2.265625 8.589844zm0 0"/><path d="m338.847656 117.632812.050782-.070312c3.203124 1.570312 6.722656 2.398438 10.292968 2.414062 13.257813 0 24-10.742187 24-24 0-13.253906-10.742187-24-24-24-13.253906 0-24 10.746094-24 24 .015625 3.570313.835938 7.089844 2.402344 10.296876l-.074219.050781-10.328125 10.34375-10.34375-10.34375c-3.136718-3.035157-8.128906-2.988281-11.214844.09375-3.085937 3.085937-3.128906 8.078125-.097656 11.214843l10.34375 10.34375-26.34375 26.347657c-1.5 1.5-2.34375 3.53125-2.34375 5.652343v240c0 4.421876 3.582032 8 8 8 4.417969 0 8-3.578124 8-8v-236.6875zm10.34375-29.65625c4.417969 0 8 3.582032 8 8 0 4.421876-3.582031 8-8 8-4.417968 0-8-3.578124-8-8 0-4.417968 3.582032-8 8-8zm0 0"/><path d="m194.847656 82.324219c-1.5-1.503907-3.535156-2.34375-5.65625-2.347657h-17.472656c-3.894531-11.019531-15.164062-17.628906-26.683594-15.652343-11.519531 1.976562-19.941406 11.964843-19.941406 23.652343 0 11.691407 8.421875 21.679688 19.941406 23.65625 11.519532 1.976563 22.789063-4.632812 26.683594-15.65625h14.160156l27.3125 27.3125v33.378907l-26.34375-26.34375c-3.136718-3.035157-8.128906-2.988281-11.214844.09375-3.085937 3.085937-3.128906 8.078125-.097656 11.214843l37.65625 37.65625v220.6875c0 4.421876 3.582032 8 8 8 4.417969 0 8-3.578124 8-8v-280c0-2.121093-.84375-4.152343-2.34375-5.652343zm-45.65625 13.652343c-4.417968 0-8-3.578124-8-8 0-4.417968 3.582032-8 8-8 4.417969 0 8 3.582032 8 8 0 4.421876-3.582031 8-8 8zm0 0"/><path d="m154.847656 162.324219-.070312-.050781c1.570312-3.203126 2.398437-6.726563 2.414062-10.296876 0-13.253906-10.742187-24-24-24-13.253906 0-24 10.746094-24 24 0 13.257813 10.746094 24 24 24 3.570313-.011718 7.089844-.832031 10.296875-2.398437l.046875.074219 37.65625 37.636718v17.378907l-18.34375-18.34375c-3.136718-3.035157-8.128906-2.988281-11.214844.09375-3.085937 3.085937-3.128906 8.078125-.097656 11.214843l29.65625 29.65625v100.6875c0 4.421876 3.582032 8 8 8 4.417969 0 8-3.578124 8-8v-144c0-2.121093-.84375-4.152343-2.34375-5.652343zm-21.65625-2.347657c-4.417968 0-8-3.578124-8-8 0-4.417968 3.582032-8 8-8 4.417969 0 8 3.582032 8 8 0 4.421876-3.582031 8-8 8zm0 0"/><path d="m294.847656 78.324219-20-20-.054687-.050781c1.566406-3.207032 2.386719-6.726563 2.398437-10.296876 0-13.253906-10.742187-24-24-24-13.253906 0-24 10.746094-24 24 0 13.257813 10.746094 24 24 24 3.570313-.011718 7.089844-.832031 10.296875-2.398437l.046875.074219 14.34375 14.324218-30.34375 30.347657c-1.5 1.5-2.34375 3.53125-2.34375 5.652343v104c0 4.421876 3.582032 8 8 8 4.417969 0 8-3.578124 8-8v-100.6875l33.65625-33.65625c3.125-3.121093 3.125-8.1875 0-11.308593zm-41.65625-22.347657c-4.417968 0-8-3.578124-8-8 0-4.417968 3.582032-8 8-8 4.417969 0 8 3.582032 8 8 0 4.421876-3.582031 8-8 8zm0 0"/><path d="m253.191406 247.976562c-4.417968 0-8 3.582032-8 8v168c0 4.421876 3.582032 8 8 8 4.417969 0 8-3.578124 8-8v-168c0-4.417968-3.582031-8-8-8zm0 0"/></g></svg>