<svg height="512" viewBox="0 0 512 512" width="512" xmlns="http://www.w3.org/2000/svg" xmlns:xlink="http://www.w3.org/1999/xlink"><linearGradient id="a" gradientUnits="userSpaceOnUse" x1="25.642" x2="528.448" y1="500.494" y2="-2.312" data-name="New Gradient Swatch 1"><stop offset="0" stop-color="#003f8a"/><stop offset=".518" stop-color="#00d7df"/><stop offset="1" stop-color="#006df0"/></linearGradient><linearGradient id="b" x1="42.572" x2="545.378" xlink:href="#a" y1="517.423" y2="14.617"/><g><path d="m383.81 141.54-31.81-18.18v-35.36h8a8 8 0 0 0 8-8v-44a28.031 28.031 0 0 0 -28-28h-168a28.031 28.031 0 0 0 -28 28v44a8 8 0 0 0 8 8h8v35.36l-31.81 18.18a48.092 48.092 0 0 0 -24.19 41.67v272.79a48.051 48.051 0 0 0 48 48h208a48.051 48.051 0 0 0 48-48v-272.79a48.092 48.092 0 0 0 -24.19-41.67zm-223.81-105.54a12.01 12.01 0 0 1 12-12h28v24a8 8 0 0 0 16 0v-24h32v24a8 8 0 0 0 16 0v-24h32v24a8 8 0 0 0 16 0v-24h28a12.01 12.01 0 0 1 12 12v36h-192zm232 420a32.042 32.042 0 0 1 -32 32h-208a32.042 32.042 0 0 1 -32-32v-56h272zm0-72h-272v-160h272zm0-176h-272v-24.79a32.073 32.073 0 0 1 16.12-27.78l35.85-20.48a8.019 8.019 0 0 0 4.03-6.95v-40h160v40a8.019 8.019 0 0 0 4.03 6.95l35.85 20.48a32.073 32.073 0 0 1 16.12 27.78z" fill="url(#a)"/><path d="m306.91 253.09a32.025 32.025 0 0 0 -45.25 0l-28.28 28.28h-.01v.01l-28.28 28.28a32 32 0 0 0 45.25 45.25l56.57-56.57a32.025 32.025 0 0 0 0-45.25zm-67.88 90.51a16 16 0 0 1 -22.63-22.63l22.63-22.63 22.63 22.63zm56.57-56.57-22.63 22.63-22.63-22.63 22.63-22.63a16 16 0 0 1 22.63 22.63z" fill="url(#b)"/></g></svg>