<svg id="Capa_1" enable-background="new 0 0 512 512" height="512" viewBox="0 0 512 512" width="512" xmlns="http://www.w3.org/2000/svg"><g><circle cx="224" cy="304" fill="#90c1ff" r="208"/><path d="m432 304c0 114.88-93.12 208-208 208v-416c114.88 0 208 93.12 208 208z" fill="#6ea4f1"/><circle cx="400" cy="96" fill="#ecf8fa" r="96"/><path d="m496 96c0 53.02-42.98 96-96 96v-192c53.02 0 96 42.98 96 96z" fill="#e2e2f1"/><path d="m430.67 113.85c13.46-12.66 17.76-31.93 10.95-49.11s-23.14-28.28-41.62-28.28-34.81 11.1-41.62 28.28-2.51 36.45 10.95 49.11l8.77 8.24-14.81 13.93 20.55 21.86 16.16-15.2 16.16 15.2 20.55-21.86-14.81-13.93zm-20.55-21.86-10.12 9.52-10.12-9.52c-6.78-6.37-4.48-14.01-3.61-16.2s4.42-9.33 13.73-9.33 12.86 7.14 13.73 9.33 3.17 9.83-3.61 16.2z" fill="#ff6fe0"/><path d="m421.9 122.09 14.81 13.93-20.55 21.86-16.16-15.2v-41.17l10.12-9.52c6.78-6.37 4.48-14.01 3.61-16.2s-4.42-9.33-13.73-9.33v-30c18.48 0 34.81 11.1 41.62 28.28s2.51 36.45-10.95 49.11z" fill="#ff42d3"/><path d="m336 272v64h-80v80h-64v-80h-80v-64h80v-80h64v80z" fill="#ecf8fa"/><path d="m336 272v64h-80v80h-32v-224h32v80z" fill="#e2e2f1"/></g></svg>