<svg height="480pt" viewBox="0 0 480.03677 480" width="480pt" xmlns="http://www.w3.org/2000/svg"><g fill="#9bc9ff"><path d="m230.875 200.339844c-8.539062.351562-17.039062 1.3125-25.441406 2.878906.257812.332031.5.679688.722656 1.039062 8.097656-2.082031 16.375-3.394531 24.71875-3.917968zm0 0"/><path d="m103.996094 336.019531c-.035156-17.121093 3.195312-34.089843 9.519531-50v-.082031c-1-4.574219-1.507813-9.238281-1.519531-13.917969 1.503906-13.878906 6.394531-27.175781 14.238281-38.722656-45.175781 26.984375-85.207031 61.761719-118.238281 102.722656 0 0 100.078125 131.039063 224.957031 135.839844-72.285156-3.746094-128.96875-63.457031-128.957031-135.839844zm0 0"/><path d="m247.035156 200.179688c72.460938 3.515624 129.402344 63.292968 129.402344 135.839843s-56.941406 132.320313-129.402344 135.839844c124.878906-4.800781 224.960938-135.839844 224.960938-135.839844s-100.082032-131.042969-224.960938-135.839843zm0 0"/><path d="m175.996094 336.019531c0 35.34375 28.652344 64 64 64 35.34375 0 64-28.65625 64-64 0-35.347656-28.65625-64-64-64 0 35.34375-28.65625 64-64 64zm0 0"/><path d="m207.996094 72.019531h40v-64h-144v64zm0 0"/><path d="m143.996094 104.019531c0 17.671875 14.324218 32 32 32 17.671875 0 32-14.328125 32-32v-32h-64zm0 0"/></g><path d="m255.996094.0195312h-160v79.9999998h40v24c0 22.089844 17.90625 40 40 40 22.089844 0 40-17.910156 40-40v-24h40zm-56 103.9999998c0 13.253907-10.746094 24-24 24-13.257813 0-24-10.746093-24-24v-24h48zm40-40h-128v-48h128zm0 0" fill="#1e81ce"/><path d="m478.394531 331.164062c-19.886719-24.769531-42.320312-47.375-66.9375-67.449218-38.015625-31.199219-97.34375-68.96875-164.101562-71.527344-5.136719-.191406-10.714844-.226562-14.921875.070312-.679688 0-1.445313 0-2.175782.097657-7.148437.339843-14.269531 1.097656-21.328124 2.261719-14.039063-18.09375-26.503907-31.480469-27.0625-32.070313-1.523438-1.621094-3.648438-2.539063-5.871094-2.527344-2.214844 0-4.332032.921875-5.839844 2.542969-18.496094 20.09375-35.136719 41.816406-49.722656 64.902344-45.390625 27.304687-85.605469 62.410156-118.792969 103.699218-2.1875 2.867188-2.1875 6.84375 0 9.710938 19.886719 24.765625 42.324219 47.375 66.9375 67.449219 38.015625 31.199219 97.34375 68.964843 164.105469 71.527343 2.398437.085938 4.902344.167969 7.320312.167969 2.414063 0 4.910156-.082031 7.34375-.167969h.214844c66.648438-2.632812 125.886719-40.328124 163.863281-71.511718 24.628907-20.078125 47.074219-42.691406 66.96875-67.464844 2.191407-2.867188 2.191407-6.84375 0-9.710938zm-245.503906-122.921874c2.3125-.144532 4.648437-.199219 6.953125-.199219 2.300781 0 4.550781.054687 6.804688.128906 68.15625 3.339844 121.707031 59.554687 121.738281 127.792969.027343 68.238281-53.480469 124.496094-121.632813 127.894531-4.441406.160156-9.039062.152344-13.421875 0-37.335937-2.003906-71.933593-20.207031-94.734375-49.835937-22.804687-29.632813-31.535156-67.738282-23.90625-104.339844.640625 1.015625 1.296875 2.007812 1.96875 2.992187 11.867188 17.394531 30.789063 28.6875 51.734375 30.871094 3.976563 37.640625 36.417969 65.777344 74.242188 64.390625 37.828125-1.390625 68.117187-31.828125 69.324219-69.660156 1.203124-37.832032-27.089844-70.136719-64.75-73.929688-4.632813-18.324218-12.921876-35.523437-24.367188-50.5625-.96875-1.414062-1.953125-2.832031-2.9375-4.238281 3.847656-.59375 7.839844-1.039063 12-1.328125zm14.542969 72.328124c28.765625 3.820313 49.847656 28.984376 48.570312 57.976563s-24.488281 52.203125-53.480468 53.480469c-28.992188 1.277344-54.15625-19.800782-57.976563-48.570313 32.9375-3.984375 58.898437-29.945312 62.886719-62.886719zm-71.4375-100.550781c5.511718 6.246094 14.246094 16.480469 23.277344 28.382813.144531.238281.296874.472656.464843.695312 3.289063 4.382813 6.664063 9.097656 9.871094 13.785156 18.503906 27.128907 22.386719 41.695313 22.386719 49.136719.023437 24.550781-15.960938 46.246094-39.417969 53.5-23.453125 7.253907-48.894531-1.632812-62.734375-21.910156-1.015625-1.453125-1.945312-2.949219-2.808594-4.480469-.28125-.496094-.503906-1.023437-.800781-1.527344-.550781-1.046874-1.105469-2.085937-1.601563-3.199218-.277343-.625-.496093-1.28125-.742187-1.921875-.398437-.980469-.800781-1.964844-1.144531-2.972657-.230469-.699218-.398438-1.410156-.601563-2.113281-.285156-.992187-.589843-1.976562-.796875-2.992187v-.167969c-.875-4.015625-1.328125-8.109375-1.351562-12.214844.015625-1.753906.191406-3.503906.527344-5.226562 2.492187-10.460938 6.757812-20.417969 12.613281-29.4375 12.601562-20.316407 26.941406-39.5 42.859375-57.335938zm-157.722656 156c25.90625-30.933593 55.808593-58.285156 88.921874-81.335937-.089843.253906-.113281.480468-.199218.742187-.882813 2.65625-1.59375 5.367188-2.136719 8.113281-.050781.261719-.074219.519532-.121094.800782-.464843 2.53125-.714843 5.101562-.742187 7.679687.03125 4.460938.472656 8.910157 1.308594 13.292969-19.347657 51.0625-8.042969 108.675781 29.160156 148.640625-44.136719-25.628906-83.460938-58.773437-116.191406-97.933594zm327.273437 97.925781c51.273437-55.21875 51.273437-140.640624 0-195.863281 44.128906 25.632813 83.4375 58.777344 116.160156 97.9375-32.722656 39.15625-72.035156 72.296875-116.160156 97.925781zm0 0" fill="#1e81ce"/></svg>