<svg id="Capa_1" enable-background="new 0 0 512 512" height="512" viewBox="0 0 512 512" width="512" xmlns="http://www.w3.org/2000/svg" xmlns:xlink="http://www.w3.org/1999/xlink"><linearGradient id="SVGID_1_" gradientUnits="userSpaceOnUse" x1="256" x2="256" y1="512" y2="0"><stop offset="0" stop-color="#009efd"/><stop offset="1" stop-color="#2af598"/></linearGradient><g><g><path d="m0 40h40v220c0 30.704 22.487 45.695 38.906 56.641 14.989 9.993 21.094 14.903 21.094 23.359v132h-40v40h120v-40h-40c0-19.155 0-115.056 0-132 0-8.456 6.105-13.366 21.094-23.359 16.419-10.946 38.906-25.937 38.906-56.641 0-21.588 0-198.358 0-220h40v-40c-30.429 0-212.358 0-240 0zm80 0h80v120h-80zm0 160h80v60c0 8.456-6.105 13.366-21.094 23.359-5.959 3.973-12.714 8.484-18.906 14.079-6.192-5.596-12.947-10.107-18.906-14.079-14.989-9.993-21.094-14.903-21.094-23.359zm192-200v40h40v220c0 30.704 22.487 45.695 38.906 56.641 14.989 9.993 21.094 14.903 21.094 23.359v132h-40v40h120v-40h-40c0-19.155 0-115.056 0-132 0-8.456 6.105-13.366 21.094-23.359 16.419-10.946 38.906-25.937 38.906-56.641 0-21.588 0-198.358 0-220h40v-40c-8.963 0-229.954 0-240 0zm160 260c0 8.456-6.105 13.366-21.094 23.359-5.959 3.973-12.714 8.484-18.906 14.079-6.192-5.596-12.947-10.107-18.906-14.079-14.989-9.993-21.094-14.903-21.094-23.359v-60h80zm0-100h-80v-120h80z" fill="url(#SVGID_1_)"/></g></g></svg>