<svg id="Layer_1" enable-background="new 0 0 512 512" height="512" viewBox="0 0 512 512" width="512" xmlns="http://www.w3.org/2000/svg"><g fill="#0635c9"><path d="m473.4 33.3-128.5-.6c-7-14.2-21.4-23.2-37.3-23.3h-.2c-15.8 0-30.2 8.9-37.3 23l-128.6-.6c-14.5-.1-26.3 11.7-26.4 26.2l-1 234.6 14-1.4 1-233.2c0-6.8 5.5-12.2 12.3-12.2h.1l124.5.6c-.2 1.5-.3 3-.3 4.6v10.4l-56.7-.4c-3.9 0-7 3.1-7 7l-.1 17.2-25.4-.1h-.1c-9.2 0-16.6 7.4-16.6 16.6l-.8 176.7c0 3.9 3.1 7 7 7 3.9 0 7-3.1 7-7l.8-176.7c0-1.5 1.2-2.6 2.6-2.6l25.4.1-.1 15.1c0 3.9 3.1 7 7 7l196.8.9c3.9 0 7-3.1 7-7l.1-15.1 25.4.1c1.5 0 2.6 1.2 2.6 2.7l-1.2 261.5-30-.1h-.1c-14.5 0-26.2 11.7-26.3 26.2l-.1 29.1-141.6-.6-.1 14 144.9.7h.1c.7 0 1.5-.1 2.2-.1.5.1 1 .2 1.5.2 1.9 0 3.8-.8 5.1-2.2 1.6-.8 3-1.9 4.3-3.2l48.6-48.2c3.5-3.5 5.5-8.2 5.5-13.1l1.2-264c0-9.2-7.4-16.7-16.6-16.7l-25.4-.1.1-17.2c0-3.9-3.1-7-7-7l-56.7-.3v-10.4c0-1.5-.1-3.1-.2-4.6l124.5.6c6.8 0 12.3 5.6 12.2 12.3l-1.7 401.3c0 6.8-5.5 12.2-12.3 12.2h-.1l-285-1.3-.1 14 285 1.3h.1c14.5 0 26.2-11.7 26.3-26.2l1.8-401.3c.2-14.5-11.5-26.3-26.1-26.4zm-76.4 377.6.1-20.3c0-6.8 5.5-12.2 12.3-12.2h.1l20.3.1zm1.7-335-.1 32.3-182.8-.8.1-15.1.1-17.2 56.7.3c3.9 0 7-3.1 7-7l.1-17.4c.1-15.3 12.5-27.6 27.7-27.6h.1c15.3.1 27.7 12.5 27.6 27.9l-.1 17.4c0 3.9 3.1 7 7 7z"/><path d="m405.2 183.2c3.9 0 7-3.1 7-7s-3.1-7-7-7h-7.3c-3.9 0-7 3.1-7 7s3.1 7 7 7z"/><path d="m375.5 169.1-106.3-.5c-3.9 0-7 3.1-7 7s3.1 7 7 7l106.3.5c3.9 0 7-3.1 7-7-.1-3.9-3.2-7-7-7z"/><path d="m208.4 182.3 37.6.2c3.9 0 7-3.1 7-7s-3.1-7-7-7l-37.6-.2c-3.9 0-7 3.1-7 7 0 3.8 3.2 7 7 7z"/><path d="m384.7 221.1c-3.9 0-7 3.1-7 7s3.1 7 7 7l20.3.1c3.9 0 7-3.1 7-7s-3.1-7-7-7z"/><path d="m362.7 235c3.9 0 7-3.1 7-7s-3.1-7-7-7l-27.7-.1c-3.9 0-7 3.1-7 7s3.1 7 7 7z"/><path d="m208.2 234.3 107.4.5c3.9 0 7-3.1 7-7s-3.1-7-7-7l-107.4-.5c-3.9 0-7 3.1-7 7s3.1 7 7 7z"/><path d="m404.8 276.5-43.2-.2c-3.9 0-7 3.1-7 7s3.1 7 7 7l43.2.2c3.9 0 7-3.1 7-7s-3.1-7-7-7z"/><path d="m208 289.6 131.6.6c3.9 0 7-3.1 7-7s-3.1-7-7-7l-131.6-.6c-3.9 0-7 3.1-7 7s3.1 7 7 7z"/><path d="m404.6 327.5-121.9-.5c-3.9 0-7 3.1-7 7s3.1 7 7 7l121.8.6c3.9 0 7-3.1 7-7 .1-3.9-3.1-7.1-6.9-7.1z"/><path d="m227.6 326.7c-3.9 0-7 3.1-7 7s3.1 7 7 7l33.2.2c3.9 0 7-3.1 7-7s-3.1-7-7-7z"/></g><path d="m233.8 392.1c-2.1-28.7-16.2-55.1-38.9-72.9-.2-3.4-1.1-6.8-2.6-9.9 5-10 3-22.1-4.8-30-10.1-10.2-26.7-10.3-36.9-.2l-7 7c-3.7-2-7.9-3-12.1-3h-.1c-1.1 0-2.1.1-3.2.2l-9.9 1.6-5.9-5.9c-4.9-4.9-11.5-7.7-18.4-7.7h-.1c-14.4 0-26 11.6-26.1 26 0 4 .9 8 2.7 11.6-1.6 3.3-2.6 6.9-2.7 10.6-22.3 17.5-36.3 43.5-38.6 71.8-15.3 7.7-21.2 26.4-13.4 41.6 5 9.7 14.8 16 25.7 16.7 17.9 32.7 52.2 53 89.5 53.1h.5c37.1.1 71.3-19.9 89.5-52.3 17.1-.8 30.2-15.3 29.4-32.4-.6-11-6.9-20.8-16.6-25.9zm-73.3-103c2.3-2.2 5.3-3.5 8.5-3.5h.1c6.7 0 12.1 5.5 12 12.1 0 2.6-.9 5.2-2.5 7.3-1.9 2.5-1.9 6 0 8.5 1.6 2.1 2.5 4.7 2.4 7.3 0 6.7-5.5 12.1-12.1 12-3.2 0-6.3-1.3-8.5-3.6l-6.7-6.8c0-.1.1-.1.1-.2.2-.3.4-.7.6-1.1.1-.1.1-.2.2-.3.2-.5.5-.9.7-1.4 0-.1.1-.2.1-.3.2-.4.3-.8.5-1.2.1-.2.1-.3.2-.5.1-.4.2-.7.4-1.1 0-.1.1-.3.1-.4.1-.5.3-1 .4-1.5 0-.1 0-.1 0-.2.1-.5.2-.9.2-1.4 0-.2 0-.3.1-.5.1-.4.1-.8.1-1.2 0-.2 0-.3 0-.5 0-.5.1-1.1.1-1.6s0-1.1 0-1.6c0-.2 0-.3 0-.5 0-.4-.1-.8-.1-1.2 0-.2 0-.3-.1-.5-.1-.5-.1-.9-.2-1.4 0-.1 0-.1 0-.2-.1-.5-.2-1-.4-1.5 0-.1-.1-.3-.1-.4-.1-.4-.2-.7-.3-1.1-.1-.2-.1-.3-.2-.5-.1-.4-.3-.8-.5-1.2 0-.1-.1-.2-.1-.3-.2-.5-.4-1-.7-1.4-.1-.1-.1-.3-.2-.4-.2-.3-.4-.7-.6-1 0-.1-.1-.2-.1-.2zm-34.1 9c1.5-.7 3.2-1.1 4.9-1.1h.1c3 0 5.9 1.2 8.2 3.2 2.5 2.3 3.8 5.5 3.8 8.8 0 .4 0 .8-.1 1.3-.7 6.1-5.8 10.7-11.9 10.7h-.1c-6.6 0-12-5.4-12-12.1 0-.4 0-.8.1-1.2 0-.3.1-.5.1-.8 0-.1 0-.3.1-.4.1-.4.2-.8.3-1.1 0 0 0 0 0-.1.6-2 1.8-3.7 3.3-5.1 1.3-.4 2.4-1.1 3.2-2.1zm-42.2 6.5c-4-5.3-3-12.9 2.4-16.9 2.1-1.6 4.6-2.4 7.3-2.4h.1c3.2 0 6.3 1.3 8.5 3.6l6.7 6.8c0 .1-.1.1-.1.2-.2.3-.4.7-.6 1.1-.1.1-.1.2-.2.3-.2.5-.5.9-.7 1.4 0 .1-.1.2-.1.3-.2.4-.3.8-.5 1.2-.1.2-.1.3-.2.5-.1.4-.2.7-.4 1.1 0 .1-.1.3-.1.4-.1.5-.3 1-.4 1.5v.2c-.1.5-.2.9-.2 1.4 0 .2 0 .3-.1.5 0 .4-.1.8-.1 1.2v.5c0 .5-.1 1.1-.1 1.6v1.6.5c0 .4.1.8.1 1.2 0 .2 0 .3.1.5.1.5.1.9.2 1.4v.2c.1.5.2 1 .4 1.5 0 .1.1.3.1.4.1.4.2.8.4 1.1.1.2.1.3.2.5.2.4.3.8.5 1.3 0 .1.1.1.1.2.2.5.4 1 .7 1.5.1.1.1.2.2.3.2.4.4.7.6 1.1 0 .1.1.1.1.2l-6.8 6.7c-4.7 4.7-12.4 4.7-17.1-.1-4.3-4.3-4.7-11.1-1-15.9 1.9-2.7 1.9-6.2 0-8.7zm147.2 126.9c-3.2 3.1-7.4 4.9-11.9 4.9h-.1c-.6 0-1.2 0-1.8-.1-2.9-.4-5.7 1.2-7.1 3.8-15 29.9-45.7 48.7-79.1 48.6h-.4c-33.6 0-64.2-19.1-79.1-49.3-1.3-2.6-4.1-4.1-7-3.9-.6.1-1.2.1-1.8.1-9.3 0-16.9-7.6-16.9-17 0-7.3 4.7-13.7 11.6-16 2.8-.9 4.7-3.4 4.8-6.4.9-23.7 11.3-46 28.9-61.9 7.7 12.2 23.8 15.8 36 8.2 1.6-1 3.1-2.2 4.4-3.5l7-7c3.7 2 7.9 3 12.1 3h.1c4.2 0 8.3-1 12-2.9l7 7c10.2 10.2 26.7 10.3 36.9.1 1.5-1.5 2.8-3.1 3.9-4.9 17.8 16.1 28.2 38.7 28.9 62.6.1 2.9 2 5.5 4.8 6.4 8.9 3 13.6 12.6 10.7 21.4-.6 2.6-2.1 4.9-3.9 6.8z" fill="#1ae5be"/><path d="m76.1 383.1c-6.5 0-11.8 5.2-11.8 11.8 0 6.5 5.2 11.8 11.8 11.8h.1c6.5 0 11.8-5.3 11.8-11.8s-5.3-11.8-11.9-11.8z" fill="#1ae5be"/><path d="m186.9 407.2c6.5 0 11.8-5.2 11.8-11.8s-5.2-11.8-11.8-11.8c-6.5 0-11.8 5.2-11.8 11.7s5.2 11.8 11.8 11.9z" fill="#1ae5be"/><path d="m103.4 432.8c0-3.9-3.1-7-7-7-3.9 0-7 3.1-7 7-.1 22.9 18.4 41.5 41.3 41.6h.2c22.8 0 41.3-18.5 41.4-41.3 0-3.9-3.1-7-7-7-3.9 0-7 3.1-7 7 0 15.2-12.3 27.4-27.5 27.4s-27.4-12.3-27.4-27.5c0-.1 0-.1 0-.2z" fill="#1ae5be"/><path d="m72 439.3c-1.3-2.6-4.1-4.1-7-3.9-.6.1-1.2.1-1.8.1-9.3 0-16.9-7.6-16.9-17 0-7.3 4.7-13.7 11.6-16 2.8-.9 4.7-3.4 4.8-6.4.7-19.1 7.7-37.4 19.7-52.2-4.5-2.1-8.2-5.5-10.8-9.7-17.6 15.9-28 38.2-28.9 61.9-.1 2.9-2 5.5-4.8 6.4-8.9 2.9-13.7 12.5-10.8 21.4 2.3 6.9 8.7 11.6 16 11.6.6 0 1.1 0 1.8-.1 2.9-.3 5.7 1.2 7 3.9 14.8 30.1 45.5 49.2 79.1 49.3h.4c3.3 0 6.7-.2 10-.6-29.9-3.3-56.1-21.6-69.4-48.7z" fill="#d4e1f4"/><path d="m145.6 334.4-2.3-2.3c-.7.3-1.3.6-2 .9 1.5.6 2.9 1.1 4.3 1.4z" fill="#1ae5be"/></svg>