<svg id="leg-injury" enable-background="new 0 0 300 300" height="512" viewBox="0 0 300 300" width="512" xmlns="http://www.w3.org/2000/svg" xmlns:xlink="http://www.w3.org/1999/xlink"><linearGradient id="SVGID_1_" gradientUnits="userSpaceOnUse" x1="68.259" x2="274.777" y1="265.638" y2="59.119"><stop offset="0" stop-color="#107eff"/><stop offset="1" stop-color="#8f16ff"/></linearGradient><g><path d="m116.25 156.344c0 6.805 5.535 12.34 12.336 12.34 6.805 0 12.34-5.535 12.34-12.34 0-6.803-5.535-12.338-12.34-12.338-6.801 0-12.336 5.535-12.336 12.338zm16.676 0c0 2.393-1.945 4.34-4.34 4.34-2.391 0-4.336-1.947-4.336-4.34s1.945-4.338 4.336-4.338c2.394 0 4.34 1.945 4.34 4.338zm-52.926-26.344v-8c0-2.209 1.789-4 4-4s4 1.791 4 4v8c0 2.209-1.789 4-4 4s-4-1.791-4-4zm8 16v8c0 2.209-1.789 4-4 4s-4-1.791-4-4v-8c0-2.209 1.789-4 4-4s4 1.791 4 4zm-24-8c0-2.209 1.789-4 4-4h8c2.211 0 4 1.791 4 4s-1.789 4-4 4h-8c-2.211 0-4-1.791-4-4zm24 0c0-2.209 1.789-4 4-4h8c2.211 0 4 1.791 4 4s-1.789 4-4 4h-8c-2.211 0-4-1.791-4-4zm23.516-57.172 2.828-2.828-2.828-2.828c-1.562-1.562-1.562-4.094 0-5.656s4.094-1.562 5.656 0l2.828 2.828 2.828-2.828c1.562-1.562 4.094-1.562 5.656 0s1.562 4.094 0 5.656l-2.828 2.828 2.828 2.828c1.562 1.562 1.562 4.094 0 5.656-.781.781-1.805 1.172-2.828 1.172s-2.047-.391-2.828-1.172l-2.828-2.828-2.828 2.828c-.781.781-1.805 1.172-2.828 1.172s-2.047-.391-2.828-1.172c-1.563-1.562-1.563-4.093 0-5.656zm140.484-42.828c-2.211 0-4 1.791-4 4v39.58l-10.395 48.857c-.923 6.459-1.371 13.023-1.497 19.562h-60.108l-.004-20.182-4-88c-.102-2.207-2.133-3.904-4.176-3.814-2.207.1-3.918 1.971-3.816 4.178l3.996 87.819v20c0 1.056-.043 2.104-.098 3.147-.042.184-.133.346-.148.539-2.062 26.182-26.332 49.938-56.449 55.258-.764.135-1.407.523-1.95 1.015-.452.01-.899.042-1.354.042h-8c-.234 0-.469.021-.699.062l-44.727 7.945c-4.086.143-7.609 2.533-9.371 5.971-.742.725-1.203 1.738-1.203 2.857v2.131c0 .369.051.729.145 1.068 1.62 17.897 16.706 31.965 35.018 31.965h126.391c25.609 0 46.445-20.836 46.445-46.447v-1.553c0-.43-.07-.857-.207-1.264-5.172-15.523-7.793-31.684-7.793-48.035v-11.645c0-7.166.512-14.396 1.48-21.223l10.434-49.002c.055-.272.086-.552.086-.831v-40c0-2.209-1.789-4-4-4zm-12.47 160h-51.79l-7.653-16h56.874c.584 5.375 1.442 10.712 2.569 16zm-3.53-40v6.701c0 3.108.121 6.207.301 9.299h-60.04l-3.191-6.672c1-3.055 1.773-6.168 2.242-9.328zm-100 50.881v45.119h-20v-37.834c7.055-1.553 13.764-4.064 20-7.285zm-83.953 19.558c.25-1.385 1.461-2.439 2.918-2.439.234 0 .469-.021.699-.062l44.688-7.938h7.648v36h-28.836c-14.441 0-26.285-11.326-27.117-25.561zm126.501 25.561-26.226-56.198c6.85-5.994 12.516-13.012 16.57-20.662l36.758 76.855c-.033 0-.064.005-.096.005zm35.507-.979-11.01-23.021h38.114c-4.684 11.501-14.774 20.223-27.104 23.021z" fill="url(#SVGID_1_)"/></g></svg>