<svg id="bold" height="512" viewBox="0 0 32 32" width="512" xmlns="http://www.w3.org/2000/svg"><g><path d="m26 32h-20c-3.314 0-6-2.686-6-6v-20c0-3.314 2.686-6 6-6h20c3.314 0 6 2.686 6 6v20c0 3.314-2.686 6-6 6z" fill="#e3f8fa"/></g><g fill="#8ce1eb"><path d="m23.239 22.533c.448-.215.761-.67.761-1.199 0-.736-.598-1.334-1.333-1.334h-.833c-.276 0-.5.224-.5.5v3c0 .276.224.5.5.5s.5-.224.5-.5v-.46l.813.813c.097.099.225.147.353.147s.256-.049.354-.146c.195-.195.195-.512 0-.707zm-.906-1.533h.333c.184 0 .334.15.334.334s-.15.333-.333.333h-.333v-.667z"/><path d="m16.967 20.018c-.268-.074-.542.082-.616.348l-.351 1.266-.352-1.266c-.074-.266-.349-.422-.616-.348-.266.074-.422.35-.348.616l.833 3c.061.217.258.366.483.366s.422-.15.482-.366l.833-3c.074-.266-.082-.542-.348-.616z"/><path d="m19.167 21h1c.276 0 .5-.224.5-.5s-.224-.5-.5-.5h-1c-.644 0-1.167.524-1.167 1.167v1.667c0 .643.523 1.166 1.167 1.166h1c.276 0 .5-.224.5-.5v-1.333c0-.276-.224-.5-.5-.5h-1.167v-.5c0-.092.075-.167.167-.167zm.5 1.667v.333h-.5c-.092 0-.167-.075-.167-.166v-.167z"/></g><path d="m16 8c-3.878 0-8 1.285-8 3.667v3.333c0 2.382 4.122 3.667 8 3.667s8-1.285 8-3.667v-3.334c0-2.381-4.122-3.666-8-3.666zm6.315 3h-12.63c.823-.831 3.075-1.667 6.315-1.667s5.492.836 6.315 1.667zm0 1.333c-.823.831-3.075 1.667-6.315 1.667s-5.492-.836-6.315-1.667zm-6.315 5c-4.131 0-6.667-1.359-6.667-2.333v-1.248c1.528 1.035 4.145 1.582 6.667 1.582s5.139-.547 6.667-1.582v1.248c0 .974-2.536 2.333-6.667 2.333z" fill="#26c6da"/></svg>