<svg id="doctor" enable-background="new 0 0 300 300" height="512" viewBox="0 0 300 300" width="512" xmlns="http://www.w3.org/2000/svg"><g><g><path d="m186.001 196v-28h-16v-21.975c0-16.582 13.443-30.025 30.025-30.025h11.95c16.582 0 30.024 13.443 30.024 30.025v49.975z" fill="#fff"/><path d="m242 200h-56c-2.209 0-4-1.789-4-4v-24h-12c-2.209 0-4-1.789-4-4v-21.977c0-18.761 15.264-34.023 34.026-34.023h11.949c18.762 0 34.025 15.262 34.025 34.023v49.977c0 2.211-1.791 4-4 4zm-52-8h48v-45.977c0-14.347-11.675-26.023-26.025-26.023h-11.949c-14.35 0-26.026 11.676-26.026 26.023v17.977h12c2.209 0 4 1.789 4 4z" fill="#2e58ff"/></g><g><path d="m186.001 150.418v21.582h-28v-16h12l-.001-8" fill="#fff"/><path d="m186 176h-28c-2.209 0-4-1.789-4-4v-16c0-2.211 1.791-4 4-4h8v-4c0-2.211 1.791-4 4-4s4 1.789 4 4v8c0 2.211-1.791 4-4 4h-8v8h20v-17.582c0-2.211 1.791-4 4-4s4 1.789 4 4v21.582c0 2.211-1.791 4-4 4z" fill="#2e58ff"/></g><g><path d="m190 116h15.245c9.254 0 16.755-7.502 16.755-16.755v-11.245c0-8.837-7.163-16-16-16-8.837 0-16 7.163-16 16z" fill="#92ceff"/><path d="m205.245 120h-15.245c-2.209 0-4-1.789-4-4v-28c0-11.027 8.973-20 20-20s20 8.973 20 20v11.246c0 11.445-9.31 20.754-20.755 20.754zm-11.245-8h11.244c7.033 0 12.756-5.723 12.756-12.754v-11.246c0-6.617-5.383-12-12-12s-12 5.383-12 12z" fill="#2e58ff"/></g><g fill="#2e58ff"><path d="m226 200c-2.209 0-4-1.789-4-4v-48c0-2.211 1.791-4 4-4s4 1.789 4 4v48c0 2.211-1.791 4-4 4z"/><path d="m50 204c-6.617 0-12-5.383-12-12s5.383-12 12-12 12 5.383 12 12-5.382 12-12 12zm0-16c-2.205 0-4 1.793-4 4s1.795 4 4 4 4-1.793 4-4-1.794-4-4-4z"/><path d="m251.657 69.656c-1.023 0-2.047-.391-2.828-1.172l-11.312-11.312c-1.562-1.562-1.562-4.094 0-5.656s4.094-1.562 5.656 0l11.312 11.312c1.562 1.562 1.562 4.094 0 5.656-.781.782-1.805 1.172-2.828 1.172z"/><path d="m240.344 69.656c-1.023 0-2.047-.391-2.828-1.172-1.562-1.562-1.562-4.094 0-5.656l11.312-11.312c1.562-1.562 4.094-1.562 5.656 0s1.562 4.094 0 5.656l-11.312 11.312c-.781.782-1.804 1.172-2.828 1.172z"/><circle cx="64.365" cy="165.235" r="4.276"/><path d="m190 264h-148c-2.209 0-4-1.789-4-4s1.791-4 4-4h148c2.209 0 4 1.789 4 4s-1.791 4-4 4z"/></g><g><path d="m158 172h-8c-4.418 0-8-3.582-8-8 0-4.418 3.582-8 8-8h8z" fill="#92ceff"/><path d="m158 176h-8c-6.617 0-12-5.383-12-12s5.383-12 12-12h8c2.209 0 4 1.789 4 4v16c0 2.211-1.791 4-4 4zm-8-16c-2.205 0-4 1.793-4 4s1.795 4 4 4h4v-8z" fill="#2e58ff"/></g><g><path d="m262 184h-160v-12h160" fill="#92ceff"/><path d="m262 188h-160c-2.209 0-4-1.789-4-4v-12c0-2.211 1.791-4 4-4h160c2.209 0 4 1.789 4 4s-1.791 4-4 4h-156v4h156c2.209 0 4 1.789 4 4s-1.791 4-4 4z" fill="#2e58ff"/></g><g><path d="m262 260h-148v-76h148" fill="#cceaff"/><path d="m262 264h-148c-2.209 0-4-1.789-4-4v-76c0-2.211 1.791-4 4-4h148c2.209 0 4 1.789 4 4s-1.791 4-4 4h-144v68h144c2.209 0 4 1.789 4 4s-1.791 4-4 4z" fill="#2e58ff"/></g><g><path d="m76 40h42.515c20.344 0 38.193 15.345 39.414 35.652 1.327 22.051-16.164 40.348-37.929 40.348h-2v11.595c0 .167-.191.262-.324.162l-15.622-11.716c-.035-.026-.078-.041-.122-.041h-24.447c-20.344 0-38.193-15.345-39.414-35.652-1.326-22.051 16.165-40.348 37.929-40.348z" fill="#92ceff"/><path d="m117.833 131.77c-.906 0-1.818-.27-2.525-.789l-14.638-10.981h-23.185c-23.012 0-42.078-17.312-43.406-39.414-.705-11.719 3.322-22.859 11.34-31.375 7.906-8.395 19.052-13.211 30.581-13.211h42.516c23.012 0 42.078 17.312 43.406 39.414.705 11.719-3.322 22.859-11.34 31.375-7.447 7.91-17.771 12.641-28.582 13.164v7.641c0 1.508-.959 3.07-2.305 3.75-.564.285-1.212.426-1.862.426zm-41.833-87.77c-9.471 0-18.264 3.801-24.758 10.695-6.49 6.895-9.75 15.918-9.18 25.414 1.077 17.883 16.636 31.891 35.423 31.891h24.447c.789 0 1.686.273 2.342.711l9.727 7.293v-4.004c0-2.211 1.791-4 4-4h2c9.471 0 18.264-3.801 24.758-10.695 6.49-6.895 9.75-15.918 9.18-25.414-1.077-17.883-16.636-31.891-35.423-31.891z" fill="#2e58ff"/></g><path d="m82 76c0 2.209-1.791 4-4 4s-4-1.791-4-4 1.791-4 4-4c2.21 0 4 1.791 4 4z" fill="#2e58ff"/><path d="m102 76c0 2.209-1.791 4-4 4s-4-1.791-4-4 1.791-4 4-4c2.21 0 4 1.791 4 4z" fill="#2e58ff"/><path d="m122 76c0 2.209-1.791 4-4 4s-4-1.791-4-4 1.791-4 4-4c2.21 0 4 1.791 4 4z" fill="#2e58ff"/></g></svg>