<svg height="512pt" viewBox="0 0 512 512.01253" width="512pt" xmlns="http://www.w3.org/2000/svg"><path d="m247.472656 332.8125h-136.53125c-56.554687 0-102.402344 45.847656-102.402344 102.398438v51.203124c.027344 9.414063 7.652344 17.035157 17.066407 17.066407h298.496093l25.769532-66.988281v-1.28125c0-56.550782-45.84375-102.398438-102.398438-102.398438zm0 0" fill="#e8edfc"/><path d="m238.941406 332.8125v34.132812c0 14.140626-11.464844 25.601563-25.601562 25.601563h-68.265625c-14.140625 0-25.601563-11.460937-25.601563-25.601563v-34.132812zm0 0" fill="#e8edfc"/><path d="m153.605469 287.84375h51.199219v70.570312h-51.199219zm0 0" fill="#e8edfc"/><path d="m247.472656 332.8125h-8.53125v34.132812c0 14.140626-11.464844 25.601563-25.601562 25.601563h-68.265625c-14.140625 0-25.601563-11.460937-25.601563-25.601563v-34.132812h-8.53125c-56.554687 0-102.402344 45.847656-102.402344 102.398438v51.203124c.027344 9.414063 7.652344 17.035157 17.066407 17.066407h298.496093l25.769532-66.988281v-1.28125c0-56.550782-45.84375-102.398438-102.398438-102.398438zm0 0" fill="#26b99a"/><path d="m145.074219 392.546875h-76.800781c-9.414063.027344-17.039063 7.652344-17.066407 17.066406v93.867188h-25.601562c-9.414063-.03125-17.039063-7.652344-17.066407-17.066407v-51.203124c0-56.550782 45.847657-102.398438 102.402344-102.398438h8.53125v34.132812c0 14.140626 11.460938 25.601563 25.601563 25.601563zm0 0" fill="#cad9fc"/><path d="m349.871094 435.210938v1.28125l-25.597656 66.476562-.171876.511719h-272.894531v-93.867188c.027344-9.414062 7.652344-17.039062 17.066407-17.066406h145.066406c14.136718 0 25.601562-11.460937 25.601562-25.601563v-34.132812h8.53125c56.554688 0 102.398438 45.847656 102.398438 102.398438zm0 0" fill="#cad9fc"/><path d="m326.234375 435.210938v1.28125l-1.960937 66.476562v.511719h-273.066407v-93.867188c.027344-9.414062 7.652344-17.039062 17.066407-17.066406h145.066406c14.136718 0 25.601562-11.460937 25.601562-25.601563v-33.023437c50.179688 7.457031 87.324219 50.554687 87.292969 101.289063zm0 0" fill="#e8edfc"/><path d="m336.304688 167.179688c-3.160157-3.242188-7.503907-5.058594-12.03125-5.035157h-.085938c.085938-1.449219.085938-11.433593.085938-12.796875-1.203126-78.929687-66.136719-141.957031-145.066407-140.800781-78.929687-1.15625-143.863281 61.871094-145.066406 140.800781 0 1.363282 0 11.347656.085937 12.796875h-.085937c-9.398437.070313-16.996094 7.671875-17.066406 17.066407.027343 9.414062 7.652343 17.039062 17.066406 17.066406h19.539063c.148437.839844.347656 1.664062.597656 2.476562 1.558594 6.449219 3.730468 12.738282 6.484375 18.773438 21.851562 45.316406 68.148437 73.699218 118.445312 72.617187 50.296875 1.082031 96.59375-27.300781 118.441407-72.617187 2.757812-6.035156 4.929687-12.324219 6.484374-18.773438.25-.8125.449219-1.636718.597657-2.476562h19.542969c9.414062-.027344 17.039062-7.652344 17.066406-17.066406.023437-4.527344-1.792969-8.867188-5.035156-12.03125zm0 0" fill="#e8edfc"/><path d="m307.207031 173.152344c-.011719 4.050781-.242187 8.09375-.683593 12.117187-.425782 3.757813-1.023438 7.339844-1.792969 11.007813-.148438.839844-.347657 1.664062-.597657 2.476562-1.554687 6.449219-3.726562 12.738282-6.484374 18.773438-21.847657 45.316406-68.144532 73.699218-118.441407 72.617187-4.011719 0-7.9375-.167969-11.863281-.511719-45.964844-2.957031-86.734375-30.539062-106.582031-72.105468-2.753907-6.035156-4.925781-12.324219-6.484375-18.773438-.25-.8125-.449219-1.636718-.597656-2.476562-.765626-3.667969-1.363282-7.25-1.789063-11.007813-.445313-4.023437-.671875-8.066406-.683594-12.117187-.003906-3.246094.164063-6.496094.511719-9.726563-.015625-.429687.015625-.855469.085938-1.28125.253906-3.070312.765624-6.144531 1.277343-9.214843.429688-2.304688 1.027344-4.523438 1.621094-6.742188.34375-1.449219.769531-2.898438 1.195313-4.351562v-.085938c9.132812-20.90625 31.660156-63.058594 67.585937-70.996094 15.027344-2.960937 30.617187-.351562 43.859375 7.339844h.085938c4.070312 2.171875 8.003906 4.597656 11.777343 7.253906 9.558594-7.046875 20.488281-12.019531 32.085938-14.59375 49.832031-10.238281 80.296875 45.824219 91.21875 70.996094v.085938c.429687 1.453124.855469 2.902343 1.195312 4.351562.597657 2.21875 1.195313 4.4375 1.621094 6.742188.511719 3.070312 1.023437 6.144531 1.28125 9.214843.070313.425781.097656.851563.085937 1.28125.34375 3.230469.515626 6.480469.511719 9.726563zm0 0" fill="#cad9fc"/><path d="m283.570312 173.152344c-.015624 4.050781-.242187 8.09375-.683593 12.117187-.425781 3.757813-1.023438 7.339844-1.792969 11.007813-.148438.839844-.347656 1.664062-.597656 2.476562-1.554688 6.449219-3.726563 12.738282-6.484375 18.773438-19.859375 41.589844-60.671875 69.179687-106.667969 72.105468-45.964844-2.957031-86.734375-30.539062-106.582031-72.105468-2.753907-6.035156-4.925781-12.324219-6.484375-18.773438-.25-.8125-.449219-1.636718-.597656-2.476562-.765626-3.667969-1.363282-7.25-1.789063-11.007813-.445313-4.023437-.671875-8.066406-.683594-12.117187-.003906-3.246094.164063-6.496094.511719-9.726563-.015625-.429687.015625-.855469.085938-1.28125.253906-3.070312.765624-6.144531 1.277343-9.214843.429688-2.304688 1.027344-4.523438 1.621094-6.742188.34375-1.449219.769531-2.898438 1.195313-4.351562v-.085938c9.132812-20.90625 31.660156-63.058594 67.585937-70.996094 11.59375 2.574219 22.523437 7.546875 32.085937 14.59375 3.773438-2.65625 7.703126-5.082031 11.773438-7.253906h.085938c4.070312 2.171875 8.003906 4.597656 11.777343 7.253906 9.558594-7.046875 20.488281-12.019531 32.085938-14.59375 36.007812 7.9375 58.453125 50.089844 67.582031 70.996094v.085938c.425781 1.453124.855469 2.902343 1.195312 4.351562.597657 2.21875 1.195313 4.4375 1.621094 6.742188.511719 3.070312 1.023438 6.144531 1.28125 9.214843.070313.425781.097656.851563.085938 1.28125.34375 3.230469.515625 6.480469.511718 9.726563zm0 0" fill="#e8edfc"/><path d="m53.679688 196.277344h-19.539063c-9.414063-.027344-17.039063-7.652344-17.066406-17.066406.070312-9.394532 7.667969-16.996094 17.066406-17.066407h17.664063c-.417969 3.65625-.617188 7.332031-.597657 11.007813.011719 4.050781.238281 8.09375.683594 12.117187.425781 3.757813 1.023437 7.339844 1.789063 11.007813zm0 0" fill="#e8edfc"/><path d="m341.339844 179.210938c-.027344 9.414062-7.652344 17.039062-17.066406 17.066406h-19.542969c.769531-3.667969 1.367187-7.25 1.792969-11.007813.441406-4.023437.671874-8.066406.683593-12.117187.019531-3.675782-.183593-7.351563-.597656-11.007813h17.664063c9.394531.070313 16.996093 7.671875 17.066406 17.066407zm0 0" fill="#cad9fc"/><path d="m324.273438 149.347656c0 1.363282 0 11.347656-.085938 12.796875h-17.578125c-.257813-3.070312-.769531-6.144531-1.28125-9.214843-.765625-3.753907-1.707031-7.421876-2.816406-11.09375v-.085938c-13.140625-30.207031-54.269531-104.703125-123.304688-56.402344-69.035156-48.300781-110.167969 26.195313-123.308593 56.402344v.085938c-1.109376 3.671874-2.046876 7.339843-2.816407 11.09375-.511719 3.070312-1.023437 6.144531-1.277343 9.214843h-17.578126c-.085937-1.449219-.085937-11.433593-.085937-12.796875 1.203125-78.929687 66.136719-141.957031 145.066406-140.800781 78.929688-1.15625 143.863281 61.871094 145.066407 140.800781zm0 0" fill="#a4c2f7"/><path d="m324.273438 149.347656c0 1.363282 0 11.347656-.085938 12.796875h-17.578125c-.257813-3.070312-.769531-6.144531-1.28125-9.214843-.765625-3.753907-1.707031-7.421876-2.816406-11.09375v-.085938c-.765625-1.789062-1.621094-3.667969-2.558594-5.714844-7.570313-68.878906-63.464844-122.402344-132.609375-126.976562 3.925781-.34375 7.851562-.511719 11.863281-.511719 78.929688-1.15625 143.863281 61.871094 145.066407 140.800781zm0 0" fill="#7facfa"/><path d="m438.714844 395.960938-30.21875 30.121093-24.0625-24.0625 36.179687-36.269531 18.109375 18.109375c1.609375 1.601563 2.511719 3.78125 2.511719 6.050781-.003906 2.273438-.910156 4.449219-2.519531 6.050782zm0 0" fill="#e8edfc"/><path d="m408.496094 426.082031-72.363282 72.363281c-6.730468 6.121094-17.082031 5.886719-23.527343-.539062-6.445313-6.421875-6.71875-16.773438-.621094-23.527344l72.449219-72.359375zm0 0" fill="#e8edfc"/><path d="m476.167969 366.691406c-6.050781 3.460938-12.355469 6.457032-18.859375 8.957032-6.230469 2.648437-12.546875 5.121093-18.605469 8.195312l-18.089844-18.09375s44.296875-44.296875 63.574219-63.613281c2.011719-2.015625 4.894531-2.890625 7.683594-2.34375 2.792968.550781 5.128906 2.457031 6.226562 5.082031l2.304688 5.582031c1.023437 2.644531 1.875 4.691407 1.960937 5.117188 5.035157 22.273437-7.339843 40.191406-26.195312 51.117187zm0 0" fill="#e8edfc"/><path d="m128.007812 170.679688h102.398438c4.710938 0 8.535156 3.820312 8.535156 8.53125v59.734374c0 4.714844-3.824218 8.535157-8.535156 8.535157h-102.398438c-4.714843 0-8.535156-3.820313-8.535156-8.535157v-59.734374c0-4.710938 3.820313-8.53125 8.535156-8.53125zm0 0" fill="#fff"/><path d="m476.167969 366.691406c-6.050781 3.460938-12.355469 6.457032-18.859375 8.957032 5.011718-26.640626 20.542968-50.140626 43.09375-65.191407 1.023437 2.644531 1.875 4.691407 1.960937 5.117188 5.035157 22.273437-7.339843 40.191406-26.195312 51.117187zm0 0" fill="#cad9fc"/><path d="m25.605469 503.480469h25.601562c-9.414062-.03125-17.039062-7.652344-17.066406-17.066407v-51.203124c0-56.550782 45.84375-102.398438 102.398437-102.398438h-25.597656c-56.554687 0-102.402344 45.847656-102.402344 102.398438v51.203124c.027344 9.414063 7.652344 17.035157 17.066407 17.066407zm0 0" fill="#fff"/><path d="m34.140625 149.347656c0 1.363282 0 11.347656.085937 12.796875h-.085937c-9.398437.070313-16.996094 7.671875-17.066406 17.066407.027343 9.414062 7.652343 17.039062 17.066406 17.066406h19.539063c.148437.839844.347656 1.664062.597656 2.476562 1.558594 6.449219 3.730468 12.738282 6.484375 18.773438 1.164062 2.558594 2.433593 5.121094 3.789062 7.679687.316407.582031.675781 1.144531 1.007813 1.707031 1.066406 1.894532 2.167968 3.78125 3.347656 5.613282.449219.691406.9375 1.367187 1.40625 2.058594 1.125 1.707031 2.269531 3.328124 3.480469 4.941406.546875.722656 1.136719 1.425781 1.707031 2.132812 1.203125 1.527344 2.425781 3.039063 3.703125 4.503906.632813.726563 1.296875 1.425782 1.945313 2.132813 1.28125 1.402344 2.5625 2.785156 3.933593 4.125.71875.707031 1.453125 1.398437 2.1875 2.089844 1.359375 1.289062 2.742188 2.546875 4.15625 3.769531l2.386719 2.007812c1.441406 1.175782 2.902344 2.320313 4.394531 3.410157.855469.632812 1.707031 1.265625 2.5625 1.886719 1.515625 1.078124 3.070313 2.109374 4.640625 3.125.894532.578124 1.792969 1.167968 2.703125 1.707031 1.613281.980469 3.261719 1.910156 4.917969 2.832031.9375.511719 1.859375 1.039062 2.804688 1.535156 1.707031.898438 3.476562 1.707032 5.242187 2.5625.9375.441406 1.867187.902344 2.816406 1.320313 1.875.855469 3.789063 1.5625 5.707031 2.304687.894532.339844 1.773438.714844 2.679688 1.050782 2.203125.792968 4.453125 1.5 6.722656 2.183593.660156.195313 1.300782.433594 1.957032.621094 2.890624.820313 5.824218 1.550781 8.804687 2.195313 1.246094.265624 2.5625.453124 3.796875.691406l.667969.117187h-.625v44.980469h25.601562v-44.96875h.621094l-.621094-.121094c-1.265625-.238281-2.5625-.425781-3.796875-.691406-2.980468-.636719-5.917968-1.367188-8.808594-2.191406-.65625-.1875-1.296874-.429688-1.953124-.625-2.269532-.683594-4.523438-1.390625-6.722657-2.183594-.90625-.332031-1.785156-.707031-2.679687-1.050781-1.921875-.742188-3.832032-1.484375-5.710938-2.304688-.945312-.417969-1.875-.851562-2.816406-1.320312-1.765625-.855469-3.523438-1.65625-5.238281-2.5625-.949219-.492188-1.867188-1.023438-2.808594-1.535157-1.65625-.921874-3.300781-1.851562-4.914063-2.832031-.914062-.5625-1.808593-1.152343-2.707031-1.707031-1.566406-1.015625-3.121093-2.046875-4.640625-3.125-.851562-.621094-1.707031-1.253906-2.558594-1.882812-1.496093-1.121094-2.953124-2.261719-4.394531-3.414063l-2.390625-2.007813c-1.417968-1.226562-2.800781-2.484374-4.15625-3.769531-.734375-.691406-1.46875-1.382812-2.183594-2.089843-1.347656-1.339844-2.652343-2.722657-3.933593-4.121094-.648438-.710938-1.316407-1.410156-1.945313-2.136719-1.28125-1.464844-2.5-2.976563-3.703125-4.503906-.5625-.707031-1.152343-1.40625-1.707031-2.132813-1.210938-1.613281-2.355469-3.277344-3.484375-4.941406-.46875-.691406-.953125-1.363281-1.40625-2.054688-1.175781-1.835937-2.277344-3.722656-3.34375-5.617187-.332031-.570313-.691406-1.132813-1.007813-1.707031-1.355468-2.5-2.628906-5.042969-3.789062-7.679688-2.757812-6.035156-4.929688-12.320312-6.484375-18.773437-.265625-.8125-.476563-1.640625-.640625-2.484375h-19.542969c-9.414062-.027344-17.039062-7.652344-17.066406-17.066406.070313-9.394532 7.671875-16.996094 17.066406-17.066407h.085938c-.085938-1.449219-.085938-11.433593-.085938-12.796875 1.023438-73.972656 58.480469-134.863281 132.269531-140.171875-4.226562-.367187-8.484374-.628906-12.800781-.628906-4.011719 0-7.9375.167969-11.863281.511719.136719 0 .273438 0 .410156.050781-74.34375 4.640625-132.574218 65.753906-133.613281 140.238281zm0 0" fill="#fff"/><path d="m.0078125 435.210938c.1171875-41.039063 22.7851565-78.695313 58.9960935-98.003907 16.042969-8.371093 33.84375-12.800781 51.9375-12.929687v17.070312c-15.304687.125-30.359375 3.871094-43.941406 10.929688-30.632812 16.355468-49.808594 48.210937-49.925781 82.933594zm0 0" fill="#fff"/><g fill="#428dff"><path d="m93.871094 426.679688c0 4.710937-3.820313 8.53125-8.53125 8.53125-4.714844 0-8.535156-3.820313-8.535156-8.53125 0-4.714844 3.820312-8.535157 8.535156-8.535157 4.710937 0 8.53125 3.820313 8.53125 8.535157zm0 0"/><path d="m93.871094 460.8125c0 4.710938-3.820313 8.535156-8.53125 8.535156-4.714844 0-8.535156-3.824218-8.535156-8.535156s3.820312-8.535156 8.535156-8.535156c4.710937 0 8.53125 3.824218 8.53125 8.535156zm0 0"/><path d="m24.164062 377.722656c.421876.390625.867188.757813 1.332032 1.09375 1.90625 1.175782 4.148437 1.675782 6.375 1.425782 1.066406-.164063 2.097656-.523438 3.035156-1.058594 2.710938-1.660156 4.273438-4.691406 4.054688-7.859375-.125-1.101563-.441407-2.167969-.9375-3.15625-.46875-1.015625-1.125-1.929688-1.929688-2.699219-1.6875-1.546875-3.933594-2.339844-6.222656-2.191406-2.40625.21875-4.609375 1.4375-6.074219 3.359375-1.429687 1.917969-2.105469 4.292969-1.894531 6.675781l.410156 1.59375c.203125.546875.492188 1.0625.851562 1.519531.265626.480469.601563.917969 1 1.296875zm0 0"/><path d="m25.605469 512.011719h298.554687c6.753906-.011719 13.226563-2.707031 17.988282-7.492188l108.613281-108.613281c2.355469-2.375 3.109375-5.90625 1.921875-9.035156 1.707031-.714844 3.414062-1.441406 5.117187-2.167969 7.78125-3.027344 15.347657-6.574219 22.648438-10.613281 24.296875-14.148438 35.578125-36.738282 30.148437-60.417969-.058594-.253906-7.472656-26.273437-15.238281-28.535156-3.007813-.882813-6.253906-.046875-8.457031 2.175781l-72.382813 72.386719-36.203125 36.199219-21.515625 21.511718c-8.75-53.609375-55.007812-93.015625-109.328125-93.132812h-34.132812v-29.644532c46.519531-9.933593 83.992187-44.320312 97.878906-89.820312h13.054688c14.136718 0 25.597656-11.460938 25.597656-25.601562-.019532-10.820313-6.855469-20.453126-17.066406-24.046876 0-2.660156 0-5.167968 0-5.816406-1.289063-83.605468-69.992188-150.398437-153.597657-149.3359372-83.609375-1.0624998-152.308593 65.7304692-153.601562 149.3359372v5.808594c-3.566407 1.210938-6.804688 3.238281-9.453125 5.914062-4.90625 4.757813-7.65625 11.308594-7.613282 18.140626 0 14.140624 11.460938 25.601562 25.601563 25.601562h13.046875c13.886719 45.5 51.359375 79.890625 97.886719 89.820312v29.644532h-34.132813c-18.09375.128906-35.894531 4.558594-51.9375 12.929687-2.730468 1.417969-5.304687 3.132813-7.953125 4.703125-2.007812 1.210938-3.414062 3.222656-3.859375 5.527344-.449218 2.304688.101563 4.695312 1.515625 6.570312 2.726563 3.574219 7.699219 4.542969 11.570313 2.253907 2.253906-1.304688 4.410156-2.78125 6.722656-3.984375 13.582031-7.058594 28.636719-10.804688 43.941406-10.929688v25.597656c.035156 6.011719 1.671875 11.902344 4.742188 17.066407h-47.410156c-14.140626 0-25.601563 11.460937-25.601563 25.601562v85.332031h-17.066406c-4.710938 0-8.53125-3.820312-8.53125-8.53125v-51.203124c.109375-10.449219 1.878906-20.820313 5.238281-30.71875 1.261719-4.320313-.863281-8.910157-4.976562-10.742188-2.152344-.941406-4.601563-.914062-6.734376.074219-2.132812.988281-3.738281 2.839843-4.417968 5.085937-3.984375 11.695313-6.070313 23.949219-6.1757815 36.300782v51.203124c0 6.789063 2.6953125 13.300782 7.4960935 18.101563 4.800782 4.800781 11.3125 7.496094 18.101563 7.496094zm304.46875-19.558594c-3.375 3.21875-8.679688 3.21875-12.054688 0-3.332031-3.332031-3.332031-8.734375 0-12.066406l37.765625-37.777344.207032-.195313 28.398437-28.398437 12.066406 12.066406zm160.15625-184.320313c1.773437 4.269532 3.453125 8.363282 3.777343 9.328126 5.121094 22.261718-11.664062 35.78125-22.101562 41.8125-6.632812 3.660156-13.511719 6.863281-20.582031 9.59375-3.558594 1.476562-7.183594 3.027343-10.808594 4.65625l-7.851563-7.847657c32.230469-32.171875 49.023438-48.957031 57.566407-57.523437zm-69.632813 69.648438 12.046875 12.09375-24.140625 24.132812-12.046875-12.074218zm-190.191406-138.835938h-102.398438v-59.734374h102.398438zm-170.035156-54.613281c-.410156-3.714843-.621094-7.449219-.632813-11.1875 0-1.832031.15625-3.703125.265625-5.5625l50.9375 25.4375v25.078125l-47.292968-17.730468c-1.527344-5.246094-2.625-10.609376-3.277344-16.035157zm51.363281-9.984375-49.078125-24.507812c.429688-1.757813.796875-3.53125 1.308594-5.230469 7.464844-17.015625 27.648437-56.097656 58.605468-64.851563 16.015626-4.5 33.398438-.265624 51.746094 12.558594.058594 0 .128906 0 .1875.085938.558594.328125 1.15625.589844 1.777344.777344.417969.203124.855469.371093 1.304688.503906 1.078124.035156 2.160156.035156 3.242187 0 .445313-.132813.882813-.300782 1.304687-.503906.621094-.1875 1.214844-.449219 1.773438-.777344.0625-.042969.128906-.042969.191406-.085938 18.34375-12.796875 35.777344-17.066406 51.746094-12.558594 30.898438 8.71875 51.070312 47.683594 58.570312 64.75v.050782c.519532 1.707031.855469 3.488281 1.324219 5.257812l-49.058593 24.53125c-2.144532-7.207031-8.753907-12.164062-16.273438-12.203125h-102.398438c-7.523437.039063-14.132812 4.996094-16.273437 12.203125zm135.738281 18.671875 50.9375-25.4375c.109375 1.859375.261719 3.738281.261719 5.5625-.007813 3.722657-.21875 7.445313-.628906 11.144531-.65625 5.441407-1.753907 10.816407-3.285157 16.078126l-47.285156 17.730468zm76.800782-5.273437h-9.53125c.066406-.539063.203124-1.050782.261718-1.585938.480469-4.324218.726563-8.667968.734375-13.015625 0-.851562-.101562-1.65625-.117187-2.464843h8.652344c2.300781-.007813 4.503906.9375 6.082031 2.609374 1.585937 1.5625 2.46875 3.699219 2.449219 5.921876 0 4.714843-3.820313 8.535156-8.53125 8.535156zm-145.066407-170.667969c74.183594-1.074219 135.25 58.085937 136.53125 132.269531v4.265625h-1.707031c-.125-.785156-.175781-1.546875-.324219-2.339843-.851562-4.171876-1.859375-8.207032-3.027343-12.015626-.050782-.160156-.171876-.269531-.230469-.433593-.058594-.160157 0-.324219-.101563-.476563-10.242187-23.535156-32.929687-64.574218-69.863281-75-21.179687-5.226562-43.582031-.886718-61.277344 11.867188-17.695312-12.75-40.09375-17.089844-61.269531-11.867188-36.933594 10.425782-59.621094 51.464844-69.863281 75-.039063.152344-.070313.308594-.09375.46875-.058594.160156-.1875.273438-.238281.441406-1.167969 3.808594-2.175782 7.84375-3.054688 12.179688-.128906.722656-.179688 1.449219-.300781 2.175781h-1.714844v-4.265625c1.28125-74.183594 62.347656-133.34375 136.535156-132.269531zm-145.066406 170.667969c-4.714844 0-8.535156-3.820313-8.535156-8.535156-.003907-2.296876.941406-4.496094 2.613281-6.074219 1.578125-1.609375 3.75-2.496094 6.007812-2.457031h8.53125c0 .851562-.117187 1.65625-.117187 2.464843.007813 4.363281.253906 8.722657.730469 13.058594.0625.527344.1875 1.023437.257812 1.542969zm38.269531 34.132812 38.53125 14.445313v2.621093c0 9.425782 7.640625 17.066407 17.066406 17.066407h102.398438c9.425781 0 17.066406-7.640625 17.066406-17.066407v-2.621093l38.511719-14.445313c-22.136719 37.789063-62.992187 60.644532-106.777344 59.734375-43.792969.910157-84.652343-21.941406-106.796875-59.734375zm55.597656 145.066406v-25.597656h17.066407v17.066406c0 4.710938 3.820312 8.53125 8.53125 8.53125 4.714843 0 8.535156-3.820312 8.535156-8.53125v-60.820312c5.664063.6875 11.359375 1.050781 17.066406 1.085938 5.703125-.035157 11.402344-.398438 17.066407-1.085938v60.820312c0 4.710938 3.820312 8.53125 8.53125 8.53125 4.714843 0 8.535156-3.820312 8.535156-8.53125v-17.066406h17.066406v25.597656c0 9.425782-7.640625 17.066407-17.066406 17.066407h-68.265625c-9.425781 0-17.066407-7.640625-17.066407-17.066407zm-68.269531 42.667969c0-4.714843 3.820313-8.535156 8.535157-8.535156h145.066406c18.851562 0 34.132812-15.28125 34.132812-34.132813v-25.597656c50.945313.078125 92.539063 40.75 93.757813 91.679688l-35.277344 35.277344c-7.050781 6.9375-9.386719 17.359374-5.972656 26.640624h-240.242188zm0 0"/></g></svg>