<?xml version="1.0"?>
<svg xmlns="http://www.w3.org/2000/svg" xmlns:xlink="http://www.w3.org/1999/xlink" viewBox="0 0 512 512" width="512" height="512"><defs><linearGradient id="linear-gradient" x1="79.725" y1="483.04" x2="422.961" y2="139.805" gradientUnits="userSpaceOnUse"><stop offset="0" stop-color="#35e0d1"/><stop offset="1" stop-color="#f07ff1"/></linearGradient></defs><g id="gradient"><path d="M216,168v-8a8,8,0,0,1,16,0v8a8,8,0,0,1-16,0Zm80,8a8,8,0,0,0,8-8v-8a8,8,0,0,0-16,0v8A8,8,0,0,0,296,176Zm-45.656,29.656a8,8,0,0,0,11.312-11.312l-4.5-4.5,6.43-19.309a8,8,0,1,0-15.172-5.062l-8,24a8,8,0,0,0,1.93,8.187Zm-25.93,15.817a8,8,0,0,0,5.055,10.117,84.427,84.427,0,0,0,53.062,0,8,8,0,0,0-5.062-15.18,68.285,68.285,0,0,1-42.938,0A7.975,7.975,0,0,0,224.414,221.473ZM88,488V360a72.081,72.081,0,0,1,72-72h56V267.826A71.978,71.978,0,0,1,184,208a31.51,31.51,0,0,1-31.461-37.33A7.87,7.87,0,0,1,152,168V120a104,104,0,1,1,208,0v48a7.881,7.881,0,0,1-.539,2.672A31.508,31.508,0,0,1,328,208a71.978,71.978,0,0,1-32,59.826V288h56a72.081,72.081,0,0,1,72,72v96a40.047,40.047,0,0,1-40,40H96A8,8,0,0,1,88,488Zm16-8h48V400H104Zm120,0h5.757l-11.785-47.139A23.948,23.948,0,0,0,224,480Zm53.75,0-12-48h-31.5l12,48ZM256,352a39.833,39.833,0,0,1-11.047-1.581L269.545,416H296V312A40.047,40.047,0,0,1,256,352Zm69.75,128-12-48h-31.5l12,48ZM360,480V432H330.243l12,48H360Zm48-104H360v40h8a8,8,0,0,1,8,8v56h8a24.027,24.027,0,0,0,24-24Zm-48-71.361V360h48A56.04,56.04,0,0,0,360,304.639ZM312,304V416h32V304Zm32-128a16.019,16.019,0,0,0-16-16v32A16.019,16.019,0,0,0,344,176ZM168,120v28.451A31.631,31.631,0,0,1,184,144V120a8,8,0,0,1,8-8h40a8.011,8.011,0,0,1,4.438,1.344L256,126.387l19.562-13.043A8.011,8.011,0,0,1,280,112h40a8,8,0,0,1,8,8v24a31.631,31.631,0,0,1,16,4.451V120a88,88,0,0,0-176,0Zm16,72V160a16,16,0,0,0,0,32Zm72,72a56.065,56.065,0,0,0,56-56V128H282.422l-21.984,14.656a8.01,8.01,0,0,1-8.876,0L229.578,128H200v80A56.065,56.065,0,0,0,256,264Zm-24,11.8V312a24.214,24.214,0,0,0,.8,6.007l1.652,4.4A23.955,23.955,0,0,0,280,312V275.8a70.656,70.656,0,0,1-48,0ZM179.883,304l45.5,112h27.07L219.78,328.871l-.007-.012a34.785,34.785,0,0,1-2.316-6.183l-7-18.676ZM104,360v24h48V368h16V480h24.205a39.654,39.654,0,0,1,17.08-61.113L162.612,304H160A56.065,56.065,0,0,0,104,360Z" style="fill:url(#linear-gradient)"/></g></svg>
