<?xml version="1.0" encoding="iso-8859-1"?>
<!-- Generator: Adobe Illustrator 19.0.0, SVG Export Plug-In . SVG Version: 6.00 Build 0)  -->
<svg version="1.1" id="Capa_1" xmlns="http://www.w3.org/2000/svg" xmlns:xlink="http://www.w3.org/1999/xlink" x="0px" y="0px"
	 viewBox="0 0 512 512" style="enable-background:new 0 0 512 512;" xml:space="preserve">
<g>
	<g transform="translate(1 1)">
		<path style="fill:#E3E7F2;" d="M191,7.533c-59.77,0-93.867,51.778-93.867,85.333c0,41.511,44.874,66.194,75.501,87.693
			c4.709,3.319,7.301,8.89,6.806,14.63c-0.494,5.74-4.001,10.785-9.208,13.25c-32.767,15.222-81.632,26.24-81.632,80.694v23.09
			c0,10.812,8.765,19.577,19.577,19.577c8.392,0.044,15.864-5.306,18.525-13.266c6.531-19.91,20.642-46.468,38.699-46.468h0.019
			c5.683-0.131,11.084,2.472,14.521,7c3.437,4.528,4.493,10.43,2.839,15.868c-1.75,4.559-4.832,8.484-8.845,11.265
			c-19.965,14.249-34.133,25.916-34.133,59.733c0,50.332,44.258,136.533,136.533,136.533c125.831,0,145.067-163.146,145.067-221.867
			C421.4,154.769,325.219,7.533,191,7.533z"/>
		<path style="fill:#A4C2F7;" d="M421.4,280.6c0,58.709-19.2,221.867-145.067,221.867c-4.302,0.02-8.603-0.18-12.885-0.597
			C377.88,491.288,395.8,337.261,395.8,280.6c0-121.259-89.173-262.229-215.723-272.469c3.626-0.416,7.273-0.616,10.923-0.597
			C325.229,7.533,421.4,154.733,421.4,280.6z"/>
		<g>
			<path style="fill:#FFFFFF;" d="M170.232,208.439c-32.768,15.222-81.632,26.24-81.632,80.694v23.09
				c-0.008,7.675,4.475,14.646,11.462,17.823s15.186,1.973,20.965-3.078c-4.319-3.683-6.812-9.069-6.827-14.744v-23.09
				c0-54.454,48.865-65.471,81.632-80.694c5.208-2.465,8.714-7.51,9.208-13.25c0.494-5.74-2.098-11.311-6.807-14.63
				c-30.626-21.499-75.5-46.182-75.5-87.693c0-31.351,29.783-78.587,82.444-84.658c-4.68-0.391-9.391-0.675-14.177-0.675
				c-59.769,0-93.867,51.779-93.867,85.333c0,41.511,44.874,66.194,75.5,87.693c4.709,3.319,7.301,8.889,6.807,14.63
				C178.946,200.929,175.44,205.974,170.232,208.439z"/>
			<path style="fill:#FFFFFF;" d="M263.631,501.845l-0.183,0.025c0.313,0.032,0.648,0.016,0.96,0.045
				c3.883,0.326,7.825,0.55,11.895,0.551l0.03,0.001c4.398,0,8.629-0.254,12.771-0.641c-83.525-7.561-123.704-87.96-123.704-135.893
				c0-33.818,14.169-45.484,34.133-59.733c4.013-2.781,7.096-6.707,8.846-11.265c1.654-5.439,0.598-11.341-2.839-15.868
				c-3.437-4.528-8.838-7.131-14.521-7H191c-4.813,0.145-9.451,1.842-13.221,4.837c5.252,4.387,7.243,11.566,5,18.031
				c-1.75,4.558-4.833,8.484-8.846,11.265c-19.965,14.249-34.133,25.916-34.133,59.733
				C139.8,413.891,180.017,494.355,263.631,501.845z"/>
		</g>
	</g>
	<g>
		<path style="fill:#428DFF;" d="M168.08,201.398c-1.216,0.653-2.436,1.2-3.654,1.726c-3.757,1.669-7.636,3.314-11.659,4.984
			c-31.942,13.292-71.7,29.833-71.7,82.025v23.091c-0.001,13.769,9.973,25.511,23.56,27.737s26.787-5.718,31.181-18.767
			c6.617-20.173,19.256-40.592,30.606-40.595l0.01,0c3.297,0.04,6.373,1.663,8.267,4.362c1.499,2.019,1.901,4.65,1.075,7.025
			c-1.157,2.949-3.175,5.481-5.792,7.267c-22.075,15.759-37.708,29.767-37.708,66.68c0,59.292,51.658,145.067,145.067,145.067
			c121.25,0,153.6-144.825,153.6-230.4C430.933,148.671,328.75,0,192,0C128.558,0,89.6,54.671,89.6,93.867
			c0,41.05,37.525,66.437,67.683,86.838c3.95,2.675,7.8,5.279,11.45,7.838c2.141,1.501,3.359,3.997,3.227,6.609
			C171.827,197.762,170.362,200.121,168.08,201.398z M166.85,166.571c-28.208-19.083-60.183-40.716-60.183-72.704
			c0-27.563,28.517-76.8,85.333-76.8c126.983,0,221.867,139.663,221.867,264.533c0,8.713-1.55,213.333-136.533,213.333
			c-89.35,0-128-84.763-128-128c0-29.542,11.042-38.858,30.558-52.787c5.412-3.773,9.557-9.093,11.892-15.262
			c1.017-2.906,1.466-5.98,1.32-9.055c10.888,9.077,15.964,25.878,15.964,51.505c0,4.713,3.821,8.533,8.533,8.533
			c4.713,0,8.533-3.821,8.533-8.533c0-50.963-20.1-76.8-59.733-76.8c-27.492,0-42.775,40.062-46.808,52.337
			c-1.504,4.461-5.709,7.446-10.416,7.396c-6.096-0.006-11.036-4.946-11.042-11.042v-23.092c0-40.808,31.108-53.75,61.192-66.267
			c3.474-1.444,6.842-2.872,10.138-4.309l0.104-0.02c1.367-0.546,2.752-1.182,4.144-1.864c0.367-0.168,0.76-0.33,1.123-0.498
			c0.241-0.112,0.421-0.297,0.656-0.416c20.557-10.464,33.523-31.558,33.577-54.625c0.304-21.174-11.452-40.68-30.317-50.3
			c-2.728-1.372-5.982-1.182-8.532,0.498c-2.55,1.681-4.007,4.596-3.822,7.644c0.185,3.048,1.985,5.765,4.72,7.124
			c13.039,6.775,21.126,20.341,20.883,35.033c0.071,7.588-1.858,15.06-5.594,21.665c-1.81-3.685-4.518-6.857-7.873-9.223
			C174.817,171.963,170.883,169.3,166.85,166.571z"/>
		<path style="fill:#428DFF;" d="M379.733,281.6c0,7.317-1.167,179.2-102.4,179.2c-66.859,0-93.867-66.242-93.867-93.867
			c0-4.713-3.821-8.533-8.533-8.533c-4.713,0-8.533,3.82-8.533,8.533c0,32.646,31.917,110.933,110.933,110.933
			c118.108,0,119.467-188.254,119.467-196.267c0-114.437-89.458-247.467-204.8-247.467c-34.626-0.323-63.99,25.371-68.267,59.733
			c0,4.713,3.821,8.533,8.533,8.533c4.713,0,8.533-3.821,8.533-8.533c4.421-24.78,26.029-42.787,51.2-42.667
			C297.725,51.2,379.733,175.054,379.733,281.6z"/>
		<path style="fill:#428DFF;" d="M279.042,303.788c2.828,3.769,8.176,4.532,11.946,1.704c3.769-2.828,4.532-8.176,1.704-11.946
			c-18.979-23.279-43.174-41.76-70.625-53.946c-2.81-1.182-6.038-0.775-8.467,1.068c-2.429,1.843-3.69,4.842-3.308,7.867
			c0.382,3.025,2.348,5.616,5.159,6.798C240.086,266.389,261.845,282.968,279.042,303.788z"/>
		<path style="fill:#428DFF;" d="M211.517,219.308c1.584,1.614,3.744,2.533,6.006,2.554s4.439-0.857,6.052-2.441
			c0.325-0.317,32.683-31.688,62.292-31.688c4.713,0,8.533-3.82,8.533-8.533s-3.821-8.533-8.533-8.533
			c-36.634,0-72.733,35.088-74.25,36.583C208.26,210.552,208.215,215.951,211.517,219.308z"/>
		<path style="fill:#428DFF;" d="M243.2,162.133c0.544-7.598,5.158-14.307,12.058-17.533c4.204-2.114,5.903-7.232,3.799-11.441
			c-2.104-4.209-7.218-5.92-11.432-3.826c-12.634,6.167-20.881,18.754-21.492,32.8c0,4.713,3.821,8.533,8.533,8.533
			C239.38,170.667,243.2,166.846,243.2,162.133z"/>
		<path style="fill:#428DFF;" d="M254.392,318.188c-3.335,3.271-3.449,8.605-0.258,12.017c4.243,5.482,6.37,12.308,5.992,19.229
			c0,4.713,3.82,8.533,8.533,8.533s8.533-3.82,8.533-8.533c0.489-11.411-3.409-22.576-10.892-31.204
			C263.012,314.955,257.702,314.937,254.392,318.188z"/>
	</g>
</g>
<g>
</g>
<g>
</g>
<g>
</g>
<g>
</g>
<g>
</g>
<g>
</g>
<g>
</g>
<g>
</g>
<g>
</g>
<g>
</g>
<g>
</g>
<g>
</g>
<g>
</g>
<g>
</g>
<g>
</g>
</svg>
