<svg height="466pt" viewBox="0 -67 466.91 466" width="466pt" xmlns="http://www.w3.org/2000/svg"><path d="m466.910156.453125v100h-29v-52.207031l-64 64.617187c15.261719 19.523438 24.988282 44.070313 24.988282 70.703125.027343 46.511719-27.980469 88.460938-70.949219 106.265625-42.972657 17.804688-92.441407 7.957031-125.320313-24.945312-1.039062-1.042969-2.050781-2.089844-3.050781-3.160157v-.011718c11.097656-1.347656 21.933594-4.316406 32.160156-8.820313 29.703125 22.347657 70.339844 23.296875 101.054688 2.363281 30.714843-20.933593 44.683593-59.101562 34.746093-94.917968-9.941406-35.816406-41.589843-61.324219-78.699218-63.433594-1.628906-.089844-3.28125-.140625-4.929688-.140625-31.800781-.015625-61.0625 17.371094-76.253906 45.304687-15.195312 27.9375-13.890625 61.945313 3.402344 88.632813-8.214844 2.523437-16.761719 3.800781-25.359375 3.792969-1.679688 0-3.347657-.050782-5-.140625-16.382813-33.414063-15.582031-72.6875 2.152343-105.402344 17.734376-32.714844 50.210938-54.824219 87.148438-59.328125h.019531c4.609375-.535156 9.25-.792969 13.890625-.769531 25.65625.074219 50.550782 8.753906 70.691406 24.648437l64.628907-64.050781h-53.320313v-29zm0 0" fill="#00efd1"/><path d="m211.058594 230.703125c26.046875-7.945313 46.851562-27.660156 56.1875-53.242187 9.332031-25.582032 6.113281-54.0625-8.695313-76.914063 8.21875-2.515625 16.765625-3.789063 25.359375-3.78125 1.648438 0 3.300782.050781 4.929688.140625 16.382812 33.414062 15.589844 72.691406-2.136719 105.417969-17.722656 32.726562-50.183594 54.855469-87.125 59.390625-30.296875 3.707031-60.824219-4.800782-84.839844-23.640625l-46.1875 46.191406 26.167969 26.167969-19.9375 19.941406-26.171875-26.171875-28.667969 28.660156-19.941406-19.9375 28.671875-28.660156-26.171875-26.179687 19.941406-19.941407 26.167969 26.171875 46.191406-46.179687c-15.617187-20.222657-24.132812-45.023438-24.230469-70.570313 0-63.410156 51.640626-114.953125 115.050782-114.953125 30.519531.003907 59.785156 12.15625 81.328125 33.773438 1.039062 1.039062 2.0625 2.097656 3.0625 3.179687l.007812.058594h-.019531c-11.082031 1.335938-21.90625 4.296875-32.128906 8.78125l-.03125-.0625c-29.703125-22.324219-70.320313-23.265625-101.023438-2.339844-30.703125 20.929688-44.679687 59.082032-34.753906 94.886719 9.921875 35.808594 41.542969 61.328125 78.636719 63.464844 1.652343.089843 3.320312.140625 5 .140625 8.597656.007812 17.144531-1.269532 25.359375-3.792969zm0 0" fill="#00acea"/></svg>